<?xml version="1.0" encoding="utf-8"?>
<!-- Generator: Adobe Illustrator 28.0.0, SVG Export Plug-In . SVG Version: 6.00 Build 0)  -->
<svg version="1.1" id="Layer_1" xmlns="http://www.w3.org/2000/svg" xmlns:xlink="http://www.w3.org/1999/xlink" x="0px" y="0px"
	 viewBox="0 0 250 250" style="enable-background:new 0 0 250 250;" xml:space="preserve">
<style type="text/css">
	.st0{display:none;}
	.st1{display:inline;}
	.st2{fill:#FFFFFF;}
	.st3{display:inline;fill:#010101;}
	.st4{display:inline;fill:#8FC33F;}
	.st5{display:inline;fill:#47493E;}
	.st6{display:inline;fill:#F7F8F8;}
	.st7{display:inline;fill:#FCEFE6;}
	.st8{display:inline;fill:#6ECFF0;}
	.st9{display:inline;fill:#FFFFFF;}
	.st10{display:inline;fill:#95BF47;}
	.st11{display:inline;fill:#5F8F3E;}
	.st12{display:inline;fill:#B8DEC7;}
	.st13{fill:#43B883;}
	.st14{fill:#364A5E;}
	.st15{fill:#EC5637;}
	.st16{display:inline;fill:#E34F26;}
	.st17{fill:#FFD7D2;}
</style>
<g class="st0">
	<g class="st1">
		<path class="st2" d="M116.9,2c-0.5,0-2.2,0.2-3.7,0.3c-35,3.2-67.7,22-88.5,51C13.2,69.4,5.8,87.7,3,107.1
			c-1,6.8-1.1,8.8-1.1,17.9S2,136.2,3,142.9c6.7,46.2,39.6,85.1,84.2,99.5c8,2.6,16.4,4.3,26,5.4c3.7,0.4,19.9,0.4,23.6,0
			c16.5-1.8,30.6-5.9,44.4-13c2.1-1.1,2.5-1.4,2.2-1.6c-0.2-0.1-9.2-12.2-20.1-26.9l-19.7-26.6L119,143.2
			c-13.6-20.1-24.7-36.5-24.8-36.5c-0.1,0-0.2,16.2-0.2,36c-0.1,34.7-0.1,36.1-0.5,36.9c-0.6,1.2-1.1,1.7-2.1,2.2
			c-0.8,0.4-1.4,0.5-5.1,0.5H82l-1.1-0.7c-0.7-0.5-1.2-1.1-1.6-1.8l-0.5-1.1l0.1-48.2l0.1-48.3l0.7-0.9c0.4-0.5,1.2-1.2,1.8-1.5
			c1-0.5,1.4-0.5,5.5-0.5c4.9,0,5.7,0.2,7,1.6c0.4,0.4,13.7,20.5,29.7,44.7s37.8,57.3,48.6,73.6l19.5,29.5l1-0.6
			c8.7-5.7,18-13.8,25.3-22.2c15.6-17.9,25.6-39.7,29-62.9c1-6.8,1.1-8.8,1.1-17.9s-0.1-11.2-1.1-17.9
			c-6.7-46.2-39.6-85.1-84.2-99.5c-7.9-2.6-16.2-4.3-25.6-5.4C134.8,2,118.9,1.8,116.9,2L116.9,2z M167.3,76.4
			c1.1,0.6,2.1,1.7,2.4,2.8c0.2,0.6,0.2,14,0.2,44.2l-0.1,43.3l-7.6-11.7l-7.6-11.7v-31.5c0-20.3,0.1-31.8,0.2-32.3
			c0.4-1.3,1.2-2.4,2.4-3c1-0.5,1.4-0.6,5.1-0.6C165.9,75.9,166.6,76,167.3,76.4z"/>
	</g>
	<path class="st3" d="M169.9,166.7l0.1-43.3c0.1-30.2,0-43.5-0.2-44.2c-0.3-1.2-1.3-2.3-2.4-2.8c-0.8-0.4-1.4-0.5-5-0.5
		c-3.8,0-4.1,0.1-5.1,0.6c-1.1,0.6-2,1.7-2.4,3c-0.1,0.6-0.2,12-0.2,32.3v31.5l7.6,11.7L169.9,166.7z"/>
	<path class="st3" d="M191.7,228.6l-19.4-29.4c-10.7-16.2-32.6-49.3-48.6-73.6S94.3,81.3,94,80.9c-1.3-1.4-2.1-1.6-7-1.6
		c-4.2,0-4.6,0.1-5.5,0.5c-0.6,0.3-1.4,1-1.8,1.5l-0.7,0.9l-0.1,48.3l-0.1,48.2l0.5,1.1c0.4,0.7,0.9,1.3,1.6,1.8l1.1,0.7h4.2
		c3.6,0,4.3-0.1,5.1-0.5c1-0.5,1.5-1,2.1-2.2c0.4-0.8,0.5-2.2,0.5-36.9c0.1-19.8,0.1-36,0.2-36c0.1,0,11.3,16.4,24.8,36.5l44.4,63.1
		c10.8,14.6,19.9,26.7,20.1,26.9c0,0,0.1,0.1,0.1,0.1C186.2,231.9,188.9,230.3,191.7,228.6z"/>
</g>
<g class="st0">
	<path class="st4" d="M235.7,124.9c0,19.3,0,38.7,0,58c0,3.5-1.6,5.9-4.4,7.6c-5.1,3.1-10.4,6.1-15.6,9.1
		c-7.6,4.4-15.1,8.8-22.7,13.1c-10.8,6.2-21.7,12.4-32.5,18.7c-9.3,5.4-18.5,10.7-27.8,16.1c-1.7,1-3.5,1.5-5.3,2.3
		c-0.7,0.3-1.4-0.2-2.1-0.3c-1.3-0.2-2.7-0.5-3.9-1.2c-10.3-6-20.6-12-31-18C79.8,224.1,69,218,58.2,211.8
		c-12.1-7-24.2-13.9-36.2-20.9c-3.2-1.9-4.8-4.8-4.8-8.5c0-38.3,0-76.6,0-114.9c0-3.8,1.6-6.7,4.8-8.5c6.6-3.9,13.3-7.7,20-11.5
		c8.7-5,17.5-10.1,26.2-15.2c8.4-4.8,16.7-9.7,25.1-14.5c9.2-5.3,18.5-10.6,27.7-16c3.7-2.2,7.2-2.2,10.9,0
		c13.7,8,27.5,15.9,41.3,23.8c8.9,5.1,17.8,10.2,26.6,15.4c10.2,5.9,20.4,11.7,30.6,17.7c2.1,1.2,3.9,2.9,4.8,5.3
		c0.4,0.9,0.4,1.9,0.4,2.8C235.7,86.1,235.7,105.5,235.7,124.9C235.6,124.9,235.7,124.9,235.7,124.9z M158.2,113.2
		c-1.1-0.5-2.3-1.2-3.4-2c-1.8-1.3-3.3-1.3-5.1,0c-1.1,0.8-2.2,1.5-3.4,2.2c-3.9,2.4-7.9,4.7-11.8,6.9c-1.1,0.6-1.6,1.4-1.6,2.7
		c0,6.3,0,12.7,0,19c0,1.1,0.4,1.8,1.3,2.4c1.4,0.8,2.8,1.6,4.2,2.4c2.2,1.3,4.5,2.4,6.5,3.9c2,1.5,4.2,2.5,6.4,3.6
		c0.6,0.3,1.3,0.3,1.9,0c1-0.6,2.2-0.9,3.1-1.5c4.5-3,9.2-5.5,13.8-8.2c1.1-0.6,1.5-1.5,1.5-2.7c0-16.1,0-32.3,0-48.4
		c0-0.7,0-1.3-0.3-1.8c-4-2.2-7.7-4.9-11.6-6.7c-1.2,0.4-1.1,1.3-1.1,2.1c0,8.2,0,16.3,0,24.5C158.8,112,159.1,112.7,158.2,113.2z
		 M81.4,131.9L81.4,131.9c0,3.2,0,6.4,0,9.6c0,1.2,0.4,2,1.4,2.6c5.4,3.1,10.8,6.2,16.2,9.3c1.2,0.7,2.2,0.7,3.4,0
		c5.4-3.2,10.8-6.3,16.3-9.4c1-0.6,1.5-1.4,1.5-2.6c0-6.3,0-12.7,0-19c0-1.1-0.4-1.9-1.4-2.5c-5.4-3.1-10.9-6.2-16.3-9.4
		c-1.1-0.7-2.1-0.7-3.3,0c-5.4,3.1-10.7,6.2-16.1,9.3c-1.1,0.6-1.6,1.4-1.6,2.7C81.4,125.6,81.4,128.8,81.4,131.9z M67.1,149.8
		c1.3-0.4,1.2-1.3,1.2-2.1c0-8.4,0-16.7,0-25.1c0-1.3-0.5-2.1-1.6-2.7c-1.9-1-3.7-2.2-5.5-3.2c-2-1.1-4.1-2.1-6.1-3.4
		c-1.6-1.1-3.3-2-4.9-3c-1-0.6-1.9-0.5-2.9,0.1c-5.4,3.1-10.8,6.2-16.2,9.3c-1.1,0.6-1.6,1.5-1.6,2.8c0.1,8.5,0,16.9,0,25.4
		c0,0.4-0.1,0.9,0.1,1.4c0.4,0.4,1,0.8,1.5,0.3c0.8-0.9,2-1.2,3-1.6c2.3-1.1,4.4-2.7,6.7-3.8c1.2-0.6,1.7-1.5,1.6-2.8
		c0-3.6,0-7.3,0-11c0-0.9,0.1-1.7,0.6-2.5c1.5-0.5,2.8-1.4,4.2-2.3c1.2-0.8,2.3-0.7,3.4,0c1,0.6,2,1.3,3,1.8
		c1.2,0.6,1.7,1.4,1.6,2.8c-0.1,3.8,0,7.5,0,11.3c0,1,0.2,1.9,1.2,2.5C60,145.8,63.5,147.8,67.1,149.8z M204,109.7
		c-2.6,1.5-5.1,3-7.6,4.4c-1.4,0.8-2.6,1.9-3.9,2.5c-2.3,1-4.3,2.4-6.5,3.6c-1,0.5-1.4,1.2-1.3,2.3c0,2.7,0,5.5,0,8.2
		c0,3.7,0,7.4,0,11.1c0,1.1,0.3,2,1.3,2.4c2.8,1,5,2.8,7.6,4.2c3.2,1.7,6.2,3.5,9.4,5.3c0.7,0.4,1.4,0.4,2.2,0
		c3.3-1.9,6.6-3.7,9.9-5.6c1.2-0.7,1.2-1.5-0.1-2.3c-0.9-0.5-1.8-1-2.6-1.5c-4.6-2.6-9.1-5.3-13.7-7.9c-0.5-0.3-1.1-0.6-1.1-1.3
		c0-2.2,0-4.4,0-6.7c2.1-1.2,4.2-2.4,6.2-3.6c0.2,0.1,0.4,0.1,0.5,0.1c2.1,0.7,3.6,2.3,5.6,3.2c0.5,0.2,0.5,0.8,0.5,1.4
		c0,1.4,0,2.7,0,4.1c0,1.1,0.8,1.6,1.7,1.1c3.4-1.8,6.7-3.9,10.1-5.8c0.9-0.5,1.3-1.3,1.3-2.4c0-1-0.1-1.9,0-2.9
		c0.3-2-0.6-3.2-2.3-4c-3-1.5-5.9-3.2-8.7-4.9C209.6,113.1,206.8,111.5,204,109.7z M203.9,127.8c-1.1,0.7-2.1,1.4-3.3,1.6
		c-0.6,1.2-0.3,2.4-0.4,3.5c-0.1,0.9,0.4,1.6,1.2,1.9c1,0.4,1.9,0.9,2.8,1.1c1.1-0.6,2.2-1.2,3.2-1.8c0-1.5,0-2.8,0-4.2
		C206.4,129,205.1,128.7,203.9,127.8z"/>
	<path class="st5" d="M158.2,113.2c0.9-0.5,0.6-1.2,0.6-1.8c0-8.2,0-16.3,0-24.5c0-0.8-0.1-1.7,1.1-2.1c4,1.8,7.6,4.4,11.6,6.7
		c0.3,0.4,0.3,1.1,0.3,1.8c0,16.1,0,32.3,0,48.4c0,1.2-0.4,2.1-1.5,2.7c-4.6,2.7-9.4,5.2-13.8,8.2c-1,0.6-2.1,0.9-3.1,1.5
		c-0.6,0.3-1.3,0.3-1.9,0c-2.2-1.1-4.4-2.1-6.4-3.6c-2-1.5-4.4-2.6-6.5-3.9c-1.4-0.8-2.8-1.6-4.2-2.4c-0.9-0.5-1.3-1.3-1.3-2.4
		c0-6.3,0-12.7,0-19c0-1.2,0.4-2,1.6-2.7c4-2.2,8-4.4,11.8-6.9c1.1-0.7,2.3-1.3,3.4-2.2c1.7-1.3,3.2-1.3,5.1,0
		C155.9,112,157.1,112.7,158.2,113.2z M158.8,128.7c-2.2-1.2-4.3-2.5-6.4-3.7c-2.2,1.3-4.4,2.4-6.3,3.7c0,2.5,0,4.9,0,7.4
		c2.1,1.3,4.2,2.5,6.4,3.6c2.2-1.3,4.4-2.4,6.4-3.8C158.8,133.6,158.8,131.2,158.8,128.7z"/>
	<path class="st6" d="M81.4,131.9c0-3.1,0-6.3,0-9.4c0-1.3,0.5-2,1.6-2.7c5.4-3.1,10.8-6.2,16.1-9.3c1.1-0.7,2.2-0.6,3.3,0
		c5.4,3.2,10.9,6.3,16.3,9.4c1,0.6,1.4,1.3,1.4,2.5c0,6.3,0,12.7,0,19c0,1.2-0.4,2-1.5,2.6c-5.4,3.1-10.9,6.2-16.3,9.4
		c-1.2,0.7-2.2,0.7-3.4,0c-5.4-3.1-10.8-6.2-16.2-9.3c-1.1-0.6-1.4-1.4-1.4-2.6C81.4,138.3,81.4,135.1,81.4,131.9L81.4,131.9z
		 M100.3,124.1c-1.9,1.1-3.8,2.2-5.6,3.2c-0.6,0.3-0.8,0.9-0.8,1.5c0,1.8,0,3.6,0,5.6c1.7,1.9,4.2,2.6,6.2,4.1
		c2.2-1,4.2-2.4,6.2-3.5c0.4-2.2,0.2-4.3,0.2-6.4c0-0.6-0.4-1-0.9-1.3C104,126.1,102.2,125.2,100.3,124.1z"/>
	<path class="st5" d="M67.1,149.8c-3.6-1.9-7.1-4-10.6-6.1c-1-0.6-1.2-1.4-1.2-2.5c0-3.8,0-7.5,0-11.3c0-1.3-0.4-2.2-1.6-2.8
		c-1-0.5-2-1.1-3-1.8c-1.1-0.7-2.2-0.8-3.4,0c-1.4,0.9-2.7,1.8-4.2,2.3c-0.5,0.8-0.6,1.6-0.6,2.5c0,3.6,0,7.3,0,11
		c0,1.3-0.5,2.2-1.6,2.8c-2.3,1.1-4.3,2.8-6.7,3.8c-1,0.5-2.2,0.7-3,1.6c-0.5,0.5-1,0.2-1.5-0.3c-0.2-0.4-0.1-0.9-0.1-1.4
		c0-8.5,0-16.9,0-25.4c0-1.3,0.5-2.2,1.6-2.8c5.4-3.1,10.8-6.2,16.2-9.3c1-0.6,1.9-0.7,2.9-0.1c1.6,1,3.3,1.9,4.9,3
		c1.9,1.3,4,2.2,6.1,3.4c1.8,1,3.7,2.2,5.5,3.2c1.1,0.6,1.6,1.4,1.6,2.7c0,8.4,0,16.7,0,25.1C68.3,148.5,68.4,149.4,67.1,149.8z"/>
	<path class="st5" d="M204,109.7c2.8,1.8,5.5,3.4,8.3,5c2.9,1.7,5.7,3.5,8.7,4.9c1.7,0.8,2.6,2,2.3,4c-0.1,0.9-0.1,1.9,0,2.9
		c0,1.1-0.3,1.9-1.3,2.4c-3.4,1.9-6.6,4-10.1,5.8c-0.9,0.5-1.7,0-1.7-1.1c0-1.4,0-2.7,0-4.1c0-0.5,0.1-1.1-0.5-1.4
		c-1.9-0.9-3.5-2.6-5.6-3.2c-0.1,0-0.3-0.1-0.5-0.1c-2,1.2-4.1,2.3-6.2,3.6c0,2.3,0,4.5,0,6.7c0,0.7,0.6,1,1.1,1.3
		c4.6,2.6,9.1,5.2,13.7,7.9c0.9,0.5,1.8,1,2.6,1.5c1.2,0.8,1.3,1.6,0.1,2.3c-3.3,1.9-6.6,3.7-9.9,5.6c-0.7,0.4-1.5,0.4-2.2,0
		c-3.1-1.8-6.2-3.6-9.4-5.3c-2.6-1.4-4.8-3.2-7.6-4.2c-0.9-0.4-1.3-1.3-1.3-2.4c0.1-3.7,0-7.4,0-11.1c0-2.7,0-5.5,0-8.2
		c0-1.1,0.4-1.8,1.3-2.3c2.2-1.1,4.2-2.5,6.5-3.6c1.4-0.6,2.6-1.7,3.9-2.5C198.9,112.7,201.4,111.2,204,109.7z"/>
	<path class="st5" d="M203.9,127.8c1.1,0.9,2.5,1.2,3.6,2.2c0,1.4,0,2.7,0,4.2c-1,0.6-2.1,1.1-3.2,1.8c-0.9-0.2-1.8-0.7-2.8-1.1
		c-0.8-0.3-1.3-0.9-1.2-1.9c0.1-1.1-0.2-2.3,0.4-3.5C201.8,129.2,202.8,128.5,203.9,127.8z"/>
	<path class="st4" d="M158.8,128.7c0,2.6,0,4.9,0,7.3c-2,1.4-4.2,2.5-6.4,3.8c-2.2-1.1-4.3-2.4-6.4-3.6c0-2.4,0-4.9,0-7.4
		c1.9-1.3,4.1-2.4,6.3-3.7C154.5,126.2,156.6,127.4,158.8,128.7z"/>
	<path class="st4" d="M100.3,124.1c1.9,1.1,3.7,2,5.4,3.2c0.5,0.3,0.9,0.7,0.9,1.3c0,2.1,0.2,4.2-0.2,6.4c-2.1,1.1-4,2.5-6.2,3.5
		c-2-1.5-4.5-2.2-6.2-4.1c0-1.9,0-3.7,0-5.6c0-0.7,0.2-1.2,0.8-1.5C96.5,126.3,98.4,125.2,100.3,124.1z"/>
</g>
<g class="st0">
	<circle class="st7" cx="125" cy="125" r="125"/>
	<path class="st8" d="M75.3,23.6c2.9,0,5.8,0,8.7,0c0.1,0,0.2,0.1,0.3,0.1c6.7,1.1,12.8,3.9,18.6,7.3c7.8,4.7,14.8,10.5,21.3,16.8
		c0.6,0.5,0.9,0.5,1.4,0c4.2-4.1,8.5-7.9,13.2-11.3c6.3-4.6,12.9-8.7,20.3-11.2c2.2-0.8,4.5-1.2,6.7-1.7c2.9,0,5.8,0,8.7,0
		c0.8,0.2,1.7,0.4,2.5,0.7c7.4,2.2,12,7.3,14.9,14.2c2.4,5.9,3.2,12.1,3.2,18.4c0.1,9.5-1.5,18.9-3.7,28.1c-0.5,1.9-0.9,1.6,1.3,2.2
		c8.6,2.6,17,5.7,24.8,10.1c5.7,3.2,11.1,7,15.2,12.2c3.3,4.1,5.6,8.7,5.9,14.1c0.4,5.5-1.4,10.5-4.6,14.9
		c-3.8,5.4-8.8,9.3-14.3,12.7c-8.5,5.1-17.6,8.6-27.1,11.4c-2.1,0.6-1.8,0.3-1.3,2.2c2.6,11.3,4.5,22.7,3.3,34.3
		c-0.5,4.8-1.5,9.5-3.6,13.9c-3,6.1-7.5,10.5-14.1,12.5c-0.8,0.2-1.7,0.4-2.5,0.7c-2.9,0-5.8,0-8.7,0c-0.1-0.1-0.2-0.1-0.3-0.1
		c-6.7-1.1-12.7-3.8-18.4-7.2c-7.9-4.7-14.9-10.5-21.4-16.8c-0.6-0.6-1-0.6-1.6,0c-4.8,4.7-9.8,9-15.3,12.8c-5.9,4.2-12.1,7.7-19,10
		c-1.9,0.6-3.9,0.9-5.9,1.4c-2.9,0-5.8,0-8.7,0c-0.8-0.2-1.7-0.4-2.5-0.7c-7.3-2.2-12-7.3-14.9-14.2c-2.4-5.9-3.2-12.1-3.2-18.4
		c-0.1-9.5,1.5-18.9,3.7-28.1c0.4-1.8,0.4-1.7-1.3-2.3c-9.1-2.7-17.9-6-26.1-10.9c-5.3-3.1-10.1-6.7-14-11.5
		c-3.3-4.1-5.5-8.7-5.8-14c-0.4-5.5,1.4-10.4,4.5-14.8c3.8-5.4,8.8-9.3,14.3-12.7c8.5-5.2,17.7-8.7,27.2-11.5
		c1.8-0.5,1.8-0.5,1.3-2.3c-2.7-11.3-4.5-22.7-3.3-34.4c0.5-4.8,1.5-9.5,3.6-13.8c2.5-5.2,6.2-9.3,11.6-11.6
		C71.9,24.5,73.7,24.1,75.3,23.6z M158.6,159.4c0.2,0,0.3,0.1,0.5,0c6.4-0.8,12.7-1.9,19-3.2c0.8-0.2,0.5-0.6,0.4-1.1
		c-1.7-5.4-3.7-10.6-5.8-15.9c-0.3-0.8-0.7-1.6-1-2.5c-0.4,0.1-0.4,0.4-0.5,0.6c-3.5,6.6-7.2,13.1-11.1,19.5
		C159.6,157.8,159,158.5,158.6,159.4C158.7,159.5,158.6,159.5,158.6,159.4C158.6,159.5,158.6,159.5,158.6,159.4z M158.6,90.5
		C158.6,90.5,158.6,90.5,158.6,90.5C158.6,90.5,158.6,90.5,158.6,90.5c0,0.3,0.2,0.5,0.4,0.8c4.4,6.9,8.4,14,12.2,21.2
		c0.1,0.2,0.1,0.5,0.5,0.5c2.5-5.9,4.7-12,6.7-18.1c0.3-1,0-1.2-0.9-1.4c-4-0.8-8-1.6-12-2.2C163.3,91.1,161,90.5,158.6,90.5z
		 M125.1,161.7c6.6-0.1,13.2-0.2,19.8-0.8c0.6-0.1,1-0.3,1.3-0.8c7.4-11,14.1-22.5,19.9-34.5c0.2-0.5,0.2-0.9,0-1.4
		c-5.8-12-12.5-23.5-19.9-34.5c-0.3-0.4-0.6-0.6-1.1-0.7c-5.1-0.4-10.1-0.6-15.2-0.7c-8.3-0.2-16.6,0.1-24.8,0.7
		c-0.6,0-0.9,0.2-1.2,0.7c-1.1,1.7-2.2,3.3-3.3,5c-6.1,9.5-11.6,19.2-16.6,29.4c-0.2,0.5-0.4,0.9-0.1,1.5c5.9,12,12.5,23.6,20,34.6
		c0.3,0.4,0.6,0.6,1.1,0.6C111.6,161.4,118.4,161.6,125.1,161.7z M64.6,58.1c0,0.9,0.1,2.2,0.2,3.5c0.3,7.4,1.7,14.7,3.5,22
		c0.2,0.7,0.5,0.8,1.1,0.6c9.4-2.1,18.9-3.5,28.5-4.4c0.7-0.1,1.2-0.3,1.7-0.9c5.6-7.8,11.5-15.3,18-22.4c0.5-0.5,0.5-0.8,0-1.4
		c-5.1-4.9-10.5-9.5-16.4-13.4c-5.1-3.4-10.5-6.3-16.6-7.8c-2.7-0.6-5.5-0.8-8.2-0.2c-4.6,1-7.3,4.2-9,8.3
		C65.1,47,64.7,52.3,64.6,58.1z M64.6,192.2c0,2.3,0.1,4.6,0.4,6.9c0.4,3.7,1.2,7.3,3.1,10.6c2.5,4.6,6.3,7,11.6,6.9
		c4.2,0,8.1-1.3,11.9-3c9.9-4.6,18.2-11.4,26.1-18.9c0.5-0.5,0.3-0.8-0.1-1.2c-6.1-6.6-11.8-13.6-16.9-20.9
		c-1.2-1.7-2.5-2.8-4.6-2.7c-0.1,0-0.1,0-0.2,0c-8.5-0.8-16.9-2.2-25.2-3.9c-2.1-0.4-2.2-0.5-2.6,1.6
		C66,175.8,64.7,183.9,64.6,192.2z M185.4,57.2c0.1-1.1-0.1-2.7-0.2-4.2c-0.2-3.4-0.8-6.8-2-10.1c-2.8-7.4-7.9-10.4-15.6-9.3
		c-4.1,0.6-7.8,2.1-11.4,3.9c-8.9,4.5-16.4,10.8-23.6,17.7c-0.5,0.5-0.4,0.8,0,1.2c6,6.5,11.7,13.4,16.8,20.7c1.4,2,2.9,2.8,5.2,3
		c8.4,0.7,16.7,2.1,25,3.9c2.1,0.4,2.1,0.5,2.6-1.7C184,74.2,185.3,66,185.4,57.2z M185.4,191.9c0-0.8-0.1-2-0.2-3.2
		c-0.3-7.6-1.7-14.9-3.5-22.3c-0.2-0.6-0.4-0.8-1.1-0.7c-9.4,2.1-19,3.6-28.6,4.4c-0.7,0.1-1.1,0.4-1.6,0.9
		c-5.6,7.8-11.5,15.3-18,22.4c-0.6,0.6-0.5,0.9,0.1,1.5c4.5,4.3,9.1,8.3,14.2,11.9c5.2,3.7,10.7,6.9,16.9,8.8c3.2,1,6.6,1.4,9.9,0.7
		c4.6-1,7.4-4.1,9.1-8.3C184.9,203,185.3,197.7,185.4,191.9z M229,125.3c0-3.6-1.4-6.5-3.4-9.1c-2.7-3.5-6.2-6.2-9.9-8.6
		c-8.2-5.1-17.2-8.4-26.4-11.2c-0.7-0.2-0.9,0-1.1,0.6c-0.3,1.1-0.7,2.2-1.1,3.4c-2.7,8-5.8,15.8-9.3,23.5c-0.3,0.6-0.4,1.1-0.1,1.7
		c4,8.8,7.6,17.8,10.5,27.1c0.2,0.6,0.4,0.8,1.1,0.6c8.1-2.4,15.9-5.2,23.3-9.3c4.4-2.4,8.5-5.2,11.9-9
		C227,132.3,228.9,129.1,229,125.3z M61.2,96.4c-0.1,0-0.3,0.1-0.5,0.1c-8.5,2.5-16.9,5.5-24.6,10c-4.4,2.6-8.5,5.5-11.7,9.6
		c-2,2.5-3.4,5.3-3.4,8.6c-0.1,3.4,1.3,6.3,3.4,8.9c3,3.9,6.8,6.7,11,9.2c8,4.8,16.6,8,25.5,10.6c0.8,0.2,0.9-0.2,1.1-0.8
		c2.9-9.1,6.4-18.1,10.4-26.8c0.3-0.7,0.3-1.2,0-1.9c-2.3-4.9-4.4-9.9-6.3-15c-1.5-3.9-2.8-7.8-4.1-11.8
		C61.7,96.9,61.7,96.4,61.2,96.4z M138.2,78.7c-0.2-0.3-0.3-0.5-0.4-0.6c-3.8-5-7.9-9.9-12.1-14.6c-0.6-0.7-0.9-0.6-1.5,0
		c-4.2,4.7-8.2,9.5-12,14.5c-0.1,0.2-0.3,0.3-0.2,0.7C120.7,78.3,129.3,78.3,138.2,78.7z M112,171.3c-0.1,0.4,0.2,0.5,0.3,0.7
		c3.8,5,7.8,9.8,12,14.4c0.6,0.6,0.9,0.6,1.5,0c4.2-4.7,8.2-9.5,12-14.5c0.1-0.2,0.4-0.3,0.2-0.6C129.3,171.6,120.7,171.6,112,171.3
		z M91.5,90.5c-0.6,0-1,0-1.3,0.1c-6,0.8-11.9,1.8-17.8,3.1c-1,0.2-1.1,0.6-0.8,1.5c1.7,5.2,3.6,10.4,5.7,15.5
		c0.3,0.9,0.7,1.7,1.2,2.8C82.4,105.5,86.7,98,91.5,90.5z M78.3,136.6c-2.7,6.3-5,12.5-6.9,18.7c-0.2,0.6,0,0.8,0.6,0.9
		c5.6,1.2,11.2,2.2,16.8,3c0.8,0.1,1.7,0.4,2.6,0.1C86.7,152,82.4,144.5,78.3,136.6z"/>
	<path class="st8" d="M145.3,125c0,11.2-9.1,20.3-20.3,20.3c-11.2,0-20.3-9.1-20.2-20.3c0-11.2,9.1-20.3,20.3-20.2
		C136.3,104.7,145.3,113.8,145.3,125z"/>
</g>
<g class="st0">
	<polygon class="st9" points="47,91.5 153.1,57.7 132.9,233.3 25.7,212.3 	"/>
	<path class="st10" d="M205.7,48.7L205.7,48.7c-0.2-1.1-1.1-1.9-2.2-2l-20.1-1.5l-14.8-14.7c-1.5-1.5-4.3-1-5.4-0.7l-7.5,2.3
		c-4.5-12.8-12.3-24.6-26.2-24.6h-1.2c-3.9-5.2-8.8-7.5-13-7.5C83.2,0,67.8,40.3,63,60.8l-22.5,7c-7,2.2-7.2,2.4-8.1,9
		c-0.7,5-19,146.5-19,146.5L155.8,250l77.2-16.7C233,233.3,206,50,205.7,48.7z M124.1,17.7c2.4,7,3.5,14.3,3.3,21.7v1.4l-25,7.7
		C107.2,30,116.2,21.1,124.1,17.7L124.1,17.7z M114.5,8.7L114.5,8.7c1.5,0,2.9,0.5,4.1,1.4c-10.3,4.9-21.3,17-26.1,41.5l-19.6,6.1
		C78.4,39,91.4,8.7,114.5,8.7L114.5,8.7z M129.6,89.3L129.6,89.3l-9.6,28.3c-5.8-2.8-12.1-4.4-18.6-4.5c-15,0-15.8,9.4-15.8,11.8
		c0.1,12.9,33.8,17.9,33.8,48.2c0,23.9-15.1,39.2-35.5,39.2c-24.5,0-37-15.2-37-15.2l6.5-21.6c0,0,12.9,11,23.7,11
		c5.3,0.2,9.8-3.9,10-9.2c0-0.1,0-0.2,0-0.4c0-16.9-27.7-17.6-27.7-45.3c0-23.3,16.8-45.9,50.6-45.9
		C123.1,85.6,129.6,89.3,129.6,89.3L129.6,89.3z M135.8,38.2c0-0.8,0-1.7,0-2.6c0.1-6.6-0.9-13.2-2.9-19.5c7.1,0.9,11.9,9,14.9,18.3
		L135.8,38.2z"/>
	<path class="st11" d="M203.6,46.7l-20.1-1.5l-14.8-14.7c-0.6-0.5-1.3-0.9-2.1-0.9l-10.8,220.4l77.2-16.7c0,0-27-183.2-27.3-184.5
		C205.6,47.6,204.7,46.8,203.6,46.7"/>
</g>
<g class="st0">
	<circle class="st12" cx="125" cy="125" r="125"/>
	<g class="st1">
		<path class="st13" d="M225.7,61.7c-1.6,2.8-3.3,5.6-4.9,8.4c-7.7,13.4-15.4,26.8-23.2,40.1c-8.2,14.2-16.4,28.4-24.6,42.6
			c-7.7,13.4-15.5,26.8-23.2,40.2c-7.9,13.7-15.9,27.5-23.8,41.2c-0.3,0.5-0.6,1.1-0.9,1.6c-0.3-0.1-0.4-0.4-0.5-0.6
			c-9.1-15.8-18.2-31.5-27.3-47.3c-8.2-14.1-16.3-28.3-24.5-42.4c-8.8-15.2-17.6-30.5-26.4-45.7c-7.2-12.5-14.5-25-21.7-37.5
			c-0.1-0.2-0.2-0.5-0.5-0.6c0,0-0.1-0.2,0.1-0.2c0.2,0,0.5,0,0.7,0c13.2,0,26.5,0,39.7,0c0.1,0.4,0.3,0.7,0.5,1.1
			c0.3,0.5,0.6,1,0.9,1.5c1.4,2.4,2.8,4.9,4.2,7.3c1.3,2.3,2.7,4.7,4,7c1.6,2.8,3.2,5.5,4.8,8.3c1.3,2.3,2.7,4.7,4,7
			c1.6,2.8,3.2,5.5,4.7,8.2c1.8,3.1,3.6,6.2,5.4,9.3c1.8,3.2,3.6,6.3,5.5,9.5c2,3.4,3.9,6.8,5.9,10.2c1.8,3.2,3.6,6.3,5.5,9.5
			c2.2,3.8,4.4,7.6,6.6,11.4c2.4,4.2,4.9,8.5,7.3,12.7c0.3,0.5,0.5,1,0.9,1.4c0.2-0.2,0.3-0.4,0.4-0.5c1.7-2.9,3.4-5.8,5-8.7
			c2.3-3.9,4.5-7.9,6.8-11.9c2.4-4.2,4.9-8.5,7.4-12.7c2-3.4,3.9-6.9,5.9-10.3c2.2-3.8,4.4-7.6,6.6-11.4c2.4-4.2,4.9-8.5,7.3-12.7
			c2-3.5,4.1-7.1,6.1-10.6c2.2-3.8,4.4-7.7,6.6-11.6c2.4-4.2,4.9-8.4,7.3-12.6c0.3-0.5,0.7-1,0.9-1.7c13.2,0,26.4,0,39.7,0
			C225.3,61.5,225.6,61.3,225.7,61.7z"/>
		<path class="st14" d="M185.3,61.5c-0.1,0.6-0.5,1.1-0.9,1.7c-2.4,4.2-4.9,8.4-7.3,12.6c-2.2,3.8-4.4,7.7-6.6,11.6
			c-2,3.5-4.1,7.1-6.1,10.6c-2.4,4.2-4.9,8.5-7.3,12.7c-2.2,3.8-4.4,7.6-6.6,11.4c-2,3.4-3.9,6.9-5.9,10.3
			c-2.4,4.2-4.9,8.5-7.4,12.7c-2.3,3.9-4.5,7.9-6.8,11.9c-1.7,2.9-3.3,5.8-5,8.7c-0.1,0.2-0.2,0.3-0.4,0.5c-0.4-0.4-0.6-1-0.9-1.4
			c-2.5-4.2-4.9-8.5-7.3-12.7c-2.2-3.8-4.4-7.6-6.6-11.4c-1.8-3.2-3.6-6.3-5.5-9.5c-2-3.4-3.9-6.8-5.9-10.2
			c-1.8-3.2-3.6-6.3-5.5-9.5c-1.8-3.1-3.6-6.2-5.4-9.3c-1.6-2.8-3.2-5.5-4.7-8.2c-1.3-2.3-2.7-4.7-4-7c-1.6-2.8-3.2-5.5-4.8-8.3
			c-1.3-2.3-2.7-4.7-4-7c-1.4-2.4-2.8-4.9-4.2-7.3c-0.3-0.5-0.6-1-0.9-1.5c-0.2-0.3-0.4-0.7-0.5-1.1c12.4,0,24.7,0,37.1,0
			c0.1,0.1,0.1,0.3,0.2,0.4c7.6,13.1,15.1,26.2,22.7,39.3c0.1,0.2,0.2,0.4,0.4,0.5c0.2-0.3,0.3-0.5,0.5-0.8
			c6.1-10.6,12.3-21.2,18.4-31.8c1.4-2.5,2.9-5,4.3-7.5C160.6,61.5,173,61.5,185.3,61.5z"/>
	</g>
</g>
<g class="st0">
	
		<image style="display:inline;overflow:visible;enable-background:new    ;" width="243" height="237" xlink:href="A246384.png"  transform="matrix(1.0211 0 0 1.0211 0.9367 4)">
	</image>
	<path class="st9" d="M200.1,76.9c-13.1-14.2-31.6-22.1-50.9-22c-18.8,0-37.9,8.1-50.3,21.1c-2.3-0.2-4.6-0.4-6.7-0.4
		c-36.9,0-59.8,31-59.8,59.8c0.1,15.5,6.1,30.4,16.8,41.8c11.2,11.9,26.7,18.6,43,18.6h57c38.7,0,70.1-31.8,70.1-70.6
		C219.1,107.2,212.3,90,200.1,76.9z M91.1,185.6c-27.4,0-49.5-22.2-49.5-49.6c0-27.2,22-49.3,49.3-49.5c12.1,0,23.9,4.4,32.9,12.5
		l0.2,0.2l20.6,21.1c3.4,3.5,3.3,9.1-0.2,12.5c-3.5,3.4-9.1,3.3-12.5-0.2l-20.3-20.9c-13.2-11.4-33.2-9.9-44.6,3.3
		c-5,5.7-7.7,13-7.7,20.6c0,17.4,14.8,32.1,32.3,32.1h4v0.1c5.8,8.1,22,17.9,22,17.9L91.1,185.6L91.1,185.6z M192.6,167.8
		c-11.1,11.6-26.4,18.1-42.4,18.2c-15.2,0-30.7-6.8-42.6-18.6l-27.1-27.3c-3.4-3.5-3.3-9.1,0.1-12.5c1.7-1.7,3.8-2.5,6.2-2.5
		s4.7,0.9,6.3,2.7l27,27c8.6,8.6,19.6,13.4,30.1,13.4c11.3,0,22-4.6,29.8-12.9c8-8.2,12.4-19.1,12.4-30.5c0-23.4-19-42.3-42.4-42.4
		c-8.9,0-16.2,1.8-23.5,6.8c-0.1-0.1-2.1-1.3-4.2-2.7c-1.3-0.8-2.8-1.7-4-2.3c-1.2-0.7-5-2.5-7.1-3.4c-0.5-0.2-1.2-0.5-1.6-0.6h0.1
		c11.2-10.4,25-15.5,40.3-15.5c33.2,0,60,26.9,60.1,60.1C210.1,140.8,203.9,156.3,192.6,167.8z"/>
</g>
<g>
	<g>
		<path class="st2" d="M137.4,244.6c-7.5,7.3-17.3,6.9-24.7-0.5c-28.4-28.5-57-57-85.4-85.4C20,151.3,12.6,144,5.3,136.6
			c-7.1-7.1-7-16.9,0.2-24.1C41,77,76.7,41.7,112,5.9c6.8-6.9,17.9-8.6,26.2,0.2c14.1,14.8,28.7,29,43.2,43.4
			c20.9,20.9,41.7,41.8,62.7,62.5c4.8,4.8,7,9.9,5.9,16.6c-0.8,4.4-3.7,7.4-6.6,10.3"/>
	</g>
	<path class="st15" d="M134.5,93.4c5.2,5.3,9.8,10,14.4,14.7c3.1,3.1,6.1,6.2,9.3,9.2c1.6,1.4,1.5,2.8,1,4.6
		c-3.5,13.1,8,25.8,21.4,23.7c14.3-2.2,21.1-19.2,12.2-30.7c-5-6.5-11.8-8.5-19.6-7c-1.4,0.3-2.2,0.1-3.1-0.8c-7-7-14.1-14-21.2-21
		c-0.5-0.5-1-1-1.6-1.5c-2.3-2-3.6-4.1-3-7.7c2.1-12.6-9.5-23.7-22.1-21.3c-2.2,0.4-3.7,0-5.2-1.5c-8.2-8.3-16.4-16.5-24.7-24.7
		c-1.4-1.4-1.4-2.3,0-3.7c6.8-6.7,13.5-13.6,20.4-20.3c7.5-7.3,17.3-6.9,24.7,0.5c28.4,28.5,56.9,57,85.4,85.4
		c7.4,7.4,14.7,14.7,22.1,22.1c7.1,7.2,7,16.9-0.2,24.1c-35.5,35.5-71.2,70.8-106.4,106.6c-6.8,6.9-17.9,8.6-26.2-0.1
		c-14.1-14.8-28.7-29-43.2-43.4C48,179.6,27.2,158.7,6.2,138c-4.8-4.8-7-9.9-5.9-16.6C1.1,117,4,114,6.9,111
		c23.5-23.4,47-46.8,70.4-70.3c1.7-1.7,2.6-2,4.4-0.1c8,8.3,16.2,16.3,24.4,24.4c1.3,1.2,1.6,2.3,1.1,4c-2.3,9.4,0.9,17.2,9.2,22
		c1.5,0.9,1.8,1.9,1.8,3.5c0,21.2-0.1,42.5,0,63.7c0,1.8-0.7,2.7-2.2,3.6c-10.7,6.6-13,19.4-5,29c4.8,5.7,11.2,7.9,18.6,6.2
		c7.9-1.9,12.9-6.9,14.5-14.8c1.7-8.4-1.3-15.1-8.5-19.8c-1.2-0.8-1.6-1.8-1.6-3.2c0-21.1,0-42.1,0-63.2
		C134.1,95.5,134.3,94.9,134.5,93.4z"/>
</g>
<g class="st0">
	<path class="st16" d="M124.9,250C55.8,250,0,194.1,0,124.9C0,55.8,56-0.1,125.2,0C194.3,0.1,250,56,250,125.2
		C249.9,194.2,194,250,124.9,250z M71.4,80.7c0.3,2.8,0.5,5.4,0.8,8.1c0.8,9.4,1.6,18.8,2.5,28.2c1.1,12.2,2.2,24.4,3.3,36.6
		c1,11.2,2,22.4,3,33.6c0.1,1.3,0.6,1.7,1.8,2c11,3,22.1,5.8,32.9,9.3c6.4,2,12.2,2,18.6,0c10.9-3.5,22.1-6.3,33.1-9.3
		c1.2-0.3,1.7-0.8,1.7-2c0-1.5,0.2-3.1,0.4-4.6c1-10.9,2-21.9,3-32.8c0.9-10.7,1.9-21.4,2.8-32c1.1-12.2,2.2-24.4,3.3-36.6
		c0.1-1.6-0.2-2-1.9-2c-34.5,0.1-69,0.1-103.5,0C71.7,79,71,79.3,71.4,80.7z M137.6,56.3c-0.6-1-1.3-1.8-1.6-2.6
		c-1.4-4.1-4.3-5.2-8.3-4.6c-1.3,0.2-1.6,0.5-1.5,1.7c0.1,4.6,0,9.1,0,13.7c0,5.4,0,5.4,5.4,5.2c1,0,1.3-0.4,1.3-1.3
		c-0.1-2.7,0-5.5,0-8.7c1.8,2.7,3.2,4.9,4.8,7.3c1.6-2.4,3-4.6,4.8-7.3c0,2.1,0,3.5,0,5c0,5.4,0,5.3,5.3,5.2c1.1,0,1.4-0.3,1.4-1.4
		c-0.1-5.9,0-11.8,0-17.7c0-1-0.2-1.4-1.3-1.3c-1.5,0.1-3.1,0.1-4.6,0c-0.9,0-1.4,0.3-1.8,1.1C140.1,52.2,138.9,54.1,137.6,56.3z
		 M101.2,59.3c0-1.9,0-3.8,0-5.8c0-4.4,0-4.3-4.4-4.4c-1.9-0.1-2.5,0.4-2.4,2.4c0.2,4.5,0.1,4.4-4.4,4.5c-1.5,0-2-0.4-1.9-1.9
		c0.1-1.6,0.7-3.7-0.3-4.6c-1.1-1-3.2-0.2-4.8-0.3c-1.2-0.1-1.7,0.3-1.6,1.6c0.1,4.7,0,9.4,0,14.1c0,4.8,0,4.7,4.7,4.8
		c1.8,0.1,2.1-0.5,2.1-2.2c-0.1-4.7,0-4.7,4.6-4.7c1.4,0,1.7,0.5,1.7,1.8c0,1.6-0.8,3.9,0.3,4.8c1.1,0.8,3.2,0.2,4.9,0.3
		c1.3,0.1,1.6-0.4,1.6-1.6C101.1,65.1,101.1,62.2,101.2,59.3z M117,62.9c0-1.9,0-3.8,0-5.8c0-0.8,0-1.4,1.2-0.9
		c1.6,0.7,3.2,0,4.6-0.5c0.8-0.3,0.2-2.2,0.3-3.4c0.1-0.6-0.1-1.2,0-1.7c0.2-1.2-0.4-1.5-1.5-1.5c-5.1,0.1-10.1,0.1-15.2,0
		c-1.7,0-2.4,0.4-2.2,2.2c0.2,1.5-0.6,3.5,0.3,4.4c0.8,0.8,2.8,0.3,4.2,0.3c1.2-0.1,1.5,0.4,1.5,1.5c-0.1,3.6,0,7.2,0,10.8
		c0,0.9,0.2,1.4,1.3,1.4c1.5-0.1,2.9-0.1,4.4,0c0.8,0,1.1-0.3,1.1-1.1C116.9,66.6,117,64.7,117,62.9z M152.4,59.3c0,3,0.1,5.9,0,8.8
		c0,1.1,0.3,1.4,1.4,1.4c3.3-0.1,6.7,0,10,0c5.3,0,5.2,0,5.1-5.3c0-1.1-0.4-1.4-1.4-1.3c-2.2,0.1-4.5,0-6.7,0
		c-1.2,0-1.5-0.3-1.5-1.5c0.1-3.6,0-7.2,0.1-10.8c0-1.1-0.2-1.7-1.5-1.5c-1.3,0.1-2.7,0.1-4,0c-1.1-0.1-1.4,0.3-1.4,1.4
		C152.5,53.5,152.4,56.4,152.4,59.3z"/>
	<path class="st9" d="M71.4,80.7C71,79.3,71.7,79,73.2,79c34.5,0,69,0,103.5,0c1.6,0,2,0.4,1.9,2c-1.2,12.2-2.2,24.4-3.3,36.6
		c-1,10.7-1.9,21.4-2.8,32c-1,10.9-2,21.9-3,32.8c-0.1,1.5-0.4,3.1-0.4,4.6c0,1.2-0.5,1.7-1.7,2c-11.1,3-22.2,5.8-33.1,9.3
		c-6.4,2-12.2,2-18.6,0c-10.8-3.5-21.9-6.2-32.9-9.3c-1.2-0.3-1.7-0.7-1.8-2c-0.9-11.2-2-22.4-3-33.6c-1.1-12.2-2.2-24.4-3.3-36.6
		c-0.8-9.4-1.7-18.8-2.5-28.2C71.9,86.1,71.7,83.5,71.4,80.7z M124.8,101.1c-10.6,0-21.2,0.1-31.8-0.1c-1.9,0-2,0.6-1.9,2.2
		c1.2,12.2,2.3,24.4,3.4,36.6c0.2,1.8,0.6,2.3,2.5,2.3c14.2-0.1,28.4,0,42.6-0.1c1.4,0,1.9,0.3,1.7,1.8c-0.5,4.7-0.9,9.5-1.2,14.2
		c-0.1,1.1-0.5,1.4-1.4,1.6c-4.3,1.2-8.5,2.4-12.8,3.6c-0.6,0.2-1.1,0.2-1.7,0.1c-4.4-1.3-8.7-2.5-13.1-3.7
		c-0.9-0.2-1.2-0.7-1.2-1.6c-0.2-2.6-0.6-5.1-0.8-7.7c-0.1-1.1-0.4-1.6-1.7-1.6c-3.5,0.1-6.9,0.1-10.4,0c-1.4,0-1.7,0.4-1.5,1.7
		c0.7,6,1.3,12,1.8,18c0.1,1.2,0.5,1.6,1.6,1.9c8.4,2.2,16.7,4.4,25.1,6.7c0.9,0.2,1.7,0.2,2.6-0.1c7.7-2.1,15.3-4.2,23-6.3
		c3.1-0.8,3-0.8,3.3-4c1-12.2,2-24.3,3-36.5c0.1-1.6-0.2-2-1.9-2c-14.8,0.1-29.7,0-44.5,0.1c-1.5,0-2.3-0.2-2.4-2
		c-0.2-3.1-0.6-6.1-0.9-9.2c-0.2-2.3-0.2-2.3,2.2-2.3c15.7,0,31.4,0,47,0c1.5,0,2.3-0.2,2.3-2c0.1-3.4,0.4-6.8,0.8-10.2
		c0.2-1.4-0.1-1.8-1.7-1.8C146.2,101.1,135.5,101.1,124.8,101.1z"/>
	<path class="st9" d="M137.6,56.3c1.4-2.2,2.6-4.2,3.7-6.2c0.4-0.8,0.9-1.1,1.8-1.1c1.5,0.1,3.1,0.1,4.6,0c1.1,0,1.3,0.4,1.3,1.3
		c0,5.9,0,11.8,0,17.7c0,1.1-0.3,1.4-1.4,1.4c-5.3,0.2-5.3,0.2-5.3-5.2c0-1.5,0-2.9,0-5c-1.8,2.7-3.2,4.9-4.8,7.3
		c-1.5-2.3-3-4.6-4.8-7.3c0,3.3,0,6,0,8.7c0,1-0.2,1.3-1.3,1.3c-5.4,0.2-5.4,0.2-5.4-5.2c0-4.6,0-9.1,0-13.7c0-1.2,0.2-1.5,1.5-1.7
		c4-0.5,6.9,0.5,8.3,4.6C136.3,54.6,136.9,55.3,137.6,56.3z"/>
	<path class="st9" d="M101.1,59.3c0,2.9-0.1,5.8,0,8.7c0,1.2-0.2,1.8-1.6,1.6c-1.7-0.1-3.8,0.5-4.9-0.3c-1.1-0.9-0.4-3.1-0.3-4.8
		c0-1.3-0.2-1.8-1.7-1.8c-4.7,0-4.7,0-4.6,4.7c0,1.6-0.3,2.2-2.1,2.2c-4.7-0.1-4.7,0-4.7-4.8c0-4.7,0.1-9.4,0-14.1
		c0-1.3,0.4-1.7,1.6-1.6c1.7,0.2,3.8-0.7,4.8,0.3c1,0.9,0.3,3,0.3,4.6c-0.1,1.5,0.4,2,1.9,1.9c4.5-0.1,4.6,0,4.4-4.5
		c-0.1-2,0.5-2.5,2.4-2.4c4.4,0.2,4.4,0,4.4,4.4C101.2,55.4,101.2,57.4,101.1,59.3z"/>
	<path class="st9" d="M117,62.9c0,1.9,0,3.7,0,5.6c0,0.8-0.2,1.2-1.1,1.1c-1.5-0.1-2.9-0.1-4.4,0c-1.1,0.1-1.3-0.4-1.3-1.4
		c0-3.6,0-7.2,0-10.8c0-1.2-0.3-1.6-1.5-1.5c-1.4,0.1-3.4,0.5-4.2-0.3c-1-0.9-0.1-2.9-0.3-4.4c-0.2-1.8,0.5-2.2,2.2-2.2
		c5.1,0.1,10.1,0.1,15.2,0c1.1,0,1.7,0.2,1.5,1.5c-0.1,0.6,0,1.2,0,1.7c-0.1,1.2,0.5,3.2-0.3,3.4c-1.4,0.4-3.1,1.1-4.6,0.5
		c-1.2-0.5-1.2,0.2-1.2,0.9C117,59,117,61,117,62.9z"/>
	<path class="st9" d="M152.4,59.3c0-3,0.1-5.9,0-8.8c0-1.1,0.4-1.5,1.4-1.4c1.3,0.1,2.7,0.1,4,0c1.3-0.1,1.5,0.4,1.5,1.5
		c-0.1,3.6,0,7.2-0.1,10.8c0,1.2,0.3,1.5,1.5,1.5c2.2-0.1,4.5,0,6.7,0c1,0,1.4,0.2,1.4,1.3c0.1,5.3,0.1,5.3-5.1,5.3
		c-3.3,0-6.7,0-10,0c-1.1,0-1.4-0.3-1.4-1.4C152.5,65.2,152.4,62.3,152.4,59.3z"/>
	<path class="st16" d="M124.8,101.1c10.7,0,21.3,0,32,0c1.5,0,1.8,0.4,1.7,1.8c-0.4,3.4-0.7,6.8-0.8,10.2c-0.1,1.8-0.8,2-2.3,2
		c-15.7-0.1-31.4,0-47,0c-2.4,0-2.4,0-2.2,2.3c0.3,3.1,0.8,6.1,0.9,9.2c0.1,1.8,0.9,2,2.4,2c14.8-0.1,29.7,0,44.5-0.1
		c1.6,0,2,0.4,1.9,2c-1.1,12.1-2.1,24.3-3,36.5c-0.2,3.2-0.2,3.2-3.3,4c-7.7,2.1-15.3,4.1-23,6.3c-0.9,0.2-1.7,0.3-2.6,0.1
		c-8.3-2.3-16.7-4.5-25.1-6.7c-1.1-0.3-1.5-0.8-1.6-1.9c-0.5-6-1.1-12-1.8-18c-0.2-1.4,0.1-1.8,1.5-1.7c3.5,0.1,6.9,0.1,10.4,0
		c1.3,0,1.6,0.5,1.7,1.6c0.2,2.6,0.6,5.1,0.8,7.7c0.1,0.9,0.3,1.4,1.2,1.6c4.4,1.2,8.8,2.5,13.1,3.7c0.6,0.2,1.1,0.1,1.7-0.1
		c4.3-1.2,8.5-2.4,12.8-3.6c0.9-0.2,1.4-0.6,1.4-1.6c0.3-4.7,0.7-9.5,1.2-14.2c0.2-1.5-0.2-1.8-1.7-1.8c-14.2,0.1-28.4,0-42.6,0.1
		c-1.8,0-2.3-0.5-2.5-2.3c-1.1-12.2-2.2-24.4-3.4-36.6c-0.2-1.6,0-2.2,1.9-2.2C103.6,101.1,114.2,101.1,124.8,101.1z"/>
</g>
<g>
	<circle class="st17" cx="125" cy="125.5" r="125"/>
	<g>
		<g>
			<path class="st2" d="M135.4,226c-6.3,6.1-14.5,5.8-20.7-0.4c-23.9-23.9-47.8-47.8-71.7-71.8c-6.2-6.2-12.4-12.3-18.5-18.5
				c-6-6-5.9-14.2,0.2-20.3c29.8-29.8,59.8-59.5,89.4-89.5c5.7-5.8,15-7.2,22,0.1C147.8,38,160.1,50,172.2,62.1
				c17.5,17.5,35,35.1,52.7,52.5c4,4,5.9,8.4,4.9,13.9c-0.6,3.7-3.1,6.2-5.5,8.7"/>
		</g>
		<path class="st15" d="M132.9,98.9c4.3,4.4,8.2,8.4,12.1,12.3c2.6,2.6,5.1,5.2,7.8,7.7c1.3,1.2,1.3,2.4,0.9,3.9
			c-3,11,6.7,21.7,18,19.9c12-1.9,17.7-16.2,10.2-25.7c-4.2-5.4-9.9-7.1-16.5-5.9c-1.1,0.2-1.8,0.1-2.6-0.7
			c-5.9-5.9-11.8-11.8-17.8-17.7c-0.4-0.4-0.9-0.8-1.3-1.2c-1.9-1.7-3-3.4-2.5-6.4c1.8-10.6-8-19.9-18.5-17.9
			c-1.9,0.4-3.1,0-4.4-1.3c-6.9-7-13.8-13.9-20.7-20.7c-1.2-1.2-1.2-1.9,0-3.1c5.7-5.6,11.3-11.4,17.1-17c6.3-6.1,14.5-5.8,20.7,0.4
			c23.9,23.9,47.8,47.8,71.7,71.8c6.2,6.2,12.4,12.3,18.5,18.5c6,6,5.9,14.2-0.2,20.3c-29.8,29.8-59.8,59.5-89.4,89.5
			c-5.7,5.8-15,7.2-22-0.1C102.2,213,89.9,201,77.8,188.9c-17.5-17.5-35-35.1-52.7-52.5c-4-4-5.9-8.4-4.9-13.9
			c0.6-3.7,3.1-6.2,5.5-8.7c19.7-19.7,39.5-39.3,59.2-59.1c1.4-1.4,2.2-1.6,3.7-0.1c6.7,6.9,13.6,13.7,20.5,20.5
			c1.1,1,1.3,1.9,1,3.4c-2,7.9,0.8,14.4,7.7,18.5c1.3,0.7,1.5,1.6,1.5,3c0,17.8,0,35.7,0,53.5c0,1.5-0.6,2.3-1.8,3
			c-9,5.6-10.9,16.3-4.2,24.3c4,4.8,9.4,6.7,15.6,5.2c6.6-1.6,10.9-5.8,12.2-12.5c1.4-7-1.1-12.7-7.1-16.7c-1-0.6-1.4-1.5-1.4-2.7
			c0-17.7,0-35.4,0-53.1C132.6,100.7,132.7,100.2,132.9,98.9z"/>
	</g>
</g>
</svg>
