<?xml version="1.0" encoding="utf-8"?>
<!-- Generator: Adobe Illustrator 28.0.0, SVG Export Plug-In . SVG Version: 6.00 Build 0)  -->
<svg version="1.1" id="Layer_1" xmlns="http://www.w3.org/2000/svg" xmlns:xlink="http://www.w3.org/1999/xlink" x="0px" y="0px"
	 viewBox="0 0 458.45 457.66" style="enable-background:new 0 0 458.45 457.66;" xml:space="preserve">
<style type="text/css">
	.st0{fill:#FFFFFF;}
	.st1{fill:#ED5436;}
</style>
<g>
	<path class="st0" d="M206.63,9.63c13.76-13.3,31.69-12.66,45.19,0.87c52.14,52.23,104.35,104.39,156.54,156.57
		c13.49,13.49,27.01,26.93,40.46,40.46c13.02,13.11,12.79,31-0.44,44.22c-65.09,65.02-130.44,129.79-195.04,195.31
		c-12.4,12.58-32.79,15.7-48.06-0.27c-25.85-27.02-52.65-53.12-79.09-79.58C87.94,328.95,49.81,290.58,11.3,252.59
		c-8.83-8.71-12.85-18.24-10.75-30.39c1.39-8.01,6.71-13.55,12.1-18.94"/>
</g>
<g>
	<path class="st1" d="M246.43,170.85c9.46,9.63,17.9,18.26,26.39,26.84c5.6,5.66,11.1,11.44,16.99,16.78
		c2.9,2.63,2.76,5.16,1.87,8.43c-6.45,23.94,14.7,47.32,39.27,43.48c26.23-4.09,38.66-35.25,22.34-56.17
		c-9.23-11.84-21.56-15.53-35.94-12.78c-2.5,0.48-3.98,0.15-5.67-1.53c-12.89-12.89-25.84-25.72-38.78-38.57
		c-0.93-0.92-1.89-1.83-2.87-2.69c-4.24-3.72-6.61-7.52-5.52-14.01c3.89-23.12-17.4-43.46-40.41-38.97
		c-4.07,0.79-6.73,0.06-9.58-2.84c-14.97-15.2-30.06-30.29-45.26-45.27c-2.65-2.61-2.6-4.21,0.01-6.78
		C181.8,34.48,194,21.84,206.63,9.63c13.76-13.3,31.69-12.66,45.19,0.87c52.14,52.23,104.35,104.39,156.54,156.57
		c13.49,13.49,27.01,26.93,40.46,40.46c13.02,13.11,12.79,31-0.44,44.22c-65.09,65.02-130.44,129.79-195.04,195.31
		c-12.4,12.58-32.79,15.7-48.06-0.27c-25.85-27.02-52.65-53.12-79.09-79.58C87.94,328.95,49.81,290.58,11.3,252.59
		c-8.83-8.71-12.85-18.24-10.75-30.39c1.39-8.01,6.71-13.55,12.1-18.94c43.02-42.97,86.12-85.85,129.08-128.88
		c3.12-3.13,4.73-3.59,8.08-0.13c14.67,15.13,29.65,29.96,44.65,44.77c2.3,2.27,2.88,4.22,2.09,7.4
		c-4.29,17.19,1.67,31.49,16.78,40.34c2.77,1.62,3.36,3.55,3.35,6.45c-0.07,38.94-0.09,77.87,0.03,116.81
		c0.01,3.29-1.24,4.93-3.94,6.61c-19.53,12.19-23.76,35.61-9.08,53.11c8.75,10.44,20.56,14.51,34.07,11.33
		c14.45-3.41,23.67-12.69,26.56-27.2c3.06-15.36-2.4-27.66-15.58-36.34c-2.15-1.42-3.03-3.27-3.03-5.83
		c0.03-38.6,0.01-77.21,0.03-115.81C245.73,174.76,246.03,173.64,246.43,170.85z"/>
</g>
</svg>
