<?xml version="1.0" encoding="utf-8"?>
<!-- Generator: Adobe Illustrator 28.0.0, SVG Export Plug-In . SVG Version: 6.00 Build 0)  -->
<svg version="1.1" id="Layer_1" xmlns="http://www.w3.org/2000/svg" xmlns:xlink="http://www.w3.org/1999/xlink" x="0px" y="0px"
	 viewBox="0 0 648.13 648.13" style="enable-background:new 0 0 648.13 648.13;" xml:space="preserve">
<style type="text/css">
	.st0{fill:#E34D26;}
	.st1{fill:#FEFDFD;}
</style>
<g>
	<path class="st0" d="M323.94,648.13C144.77,648.11-0.02,503.19,0,323.93C0.02,144.57,145.06-0.12,324.7,0
		c178.98,0.12,323.55,145.26,323.44,324.7C648.01,503.47,502.99,648.16,323.94,648.13z M185.13,209.17
		c0.68,7.32,1.34,14.11,1.94,20.91c2.15,24.37,4.25,48.74,6.42,73.11c2.83,31.66,5.72,63.31,8.57,94.96c2.61,29,5.28,58,7.73,87.02
		c0.28,3.33,1.63,4.3,4.61,5.12c28.52,7.79,57.24,15,85.38,24c16.54,5.29,31.7,5.28,48.24,0c28.3-9.04,57.19-16.27,85.88-24.08
		c3.11-0.85,4.37-2.05,4.41-5.27c0.05-3.98,0.65-7.96,1.01-11.93c2.56-28.34,5.15-56.68,7.68-85.02
		c2.47-27.68,4.86-55.37,7.33-83.05c2.83-31.66,5.67-63.31,8.67-94.96c0.4-4.16-0.62-5.25-4.9-5.25
		c-89.44,0.13-178.88,0.12-268.32,0.03C185.94,204.77,184.03,205.52,185.13,209.17z M356.64,146c-1.63-2.6-3.38-4.56-4.18-6.84
		c-3.7-10.54-11.21-13.37-21.65-11.97c-3.41,0.46-4.01,1.41-3.98,4.44c0.14,11.82,0.06,23.65,0.06,35.47
		c0,13.98,0,13.89,13.91,13.35c2.67-0.1,3.37-0.93,3.32-3.47c-0.14-7.07-0.05-14.15-0.05-22.67c4.61,7,8.43,12.8,12.41,18.86
		c4.09-6.24,7.85-11.99,12.44-19.01c0,5.36,0,9.11,0,12.87c0,13.89,0,13.81,13.82,13.43c2.79-0.08,3.69-0.82,3.67-3.67
		c-0.12-15.32-0.1-30.65-0.01-45.97c0.01-2.52-0.62-3.62-3.34-3.49c-3.99,0.19-8,0.19-11.99-0.01c-2.34-0.11-3.62,0.81-4.74,2.74
		C363.32,135.22,360.13,140.28,356.64,146z M262.23,153.71c0-5,0-9.99,0-14.99c0-11.36-0.01-11.1-11.33-11.47
		c-4.94-0.16-6.54,0.96-6.34,6.19c0.45,11.66,0.13,11.48-11.42,11.72c-4,0.08-5.14-1.04-4.95-4.98c0.19-4.08,1.93-9.55-0.73-11.99
		c-2.83-2.6-8.27-0.45-12.54-0.86c-3.25-0.31-4.28,0.76-4.22,4.14c0.21,12.16,0.08,24.32,0.08,36.48c0,12.48,0.01,12.22,12.27,12.56
		c4.63,0.13,5.43-1.39,5.35-5.59c-0.25-12.29-0.07-12.13,11.99-12.2c3.66-0.02,4.35,1.23,4.3,4.55c-0.05,4.24-2.02,10.05,0.92,12.33
		c2.75,2.13,8.3,0.47,12.59,0.84c3.43,0.29,4.16-1.11,4.07-4.24C262.09,168.7,262.22,161.2,262.23,153.71z M303.25,163.02
		c0-4.99,0-9.98,0-14.97c0-2.02-0.08-3.74,3.01-2.44c4.04,1.7,8.37-0.04,11.98-1.16c2.15-0.67,0.48-5.76,0.77-8.86
		c0.14-1.48-0.15-3.01,0.06-4.48c0.44-3.21-1-3.86-3.96-3.83c-13.13,0.15-26.28,0.26-39.41-0.05c-4.48-0.1-6.35,0.98-5.68,5.65
		c0.55,3.89-1.67,9.11,0.91,11.42c2.16,1.94,7.25,0.87,11.02,0.67c3.15-0.17,3.93,0.93,3.88,3.95c-0.18,9.31,0,18.62-0.11,27.93
		c-0.03,2.43,0.48,3.68,3.26,3.54c3.81-0.2,7.65-0.14,11.47-0.02c2.2,0.07,2.89-0.79,2.84-2.91
		C303.17,172.67,303.25,167.85,303.25,163.02z M395.2,153.87c0,7.65,0.13,15.3-0.07,22.95c-0.07,2.89,0.87,3.67,3.66,3.61
		c8.65-0.16,17.3-0.06,25.94-0.06c13.69,0,13.59,0,13.31-13.88c-0.06-2.95-1.03-3.59-3.73-3.51c-5.82,0.18-11.65-0.11-17.46,0.12
		c-3.06,0.13-3.99-0.75-3.92-3.87c0.21-9.31-0.03-18.63,0.13-27.94c0.05-2.92-0.54-4.27-3.8-4.01c-3.47,0.29-6.99,0.22-10.47,0.02
		c-2.78-0.16-3.77,0.68-3.69,3.6C395.33,138.56,395.2,146.22,395.2,153.87z"/>
	<path class="st1" d="M185.13,209.17c-1.1-3.65,0.81-4.4,4.67-4.4c89.44,0.1,178.88,0.11,268.32-0.03c4.27-0.01,5.29,1.09,4.9,5.25
		c-3.01,31.64-5.84,63.3-8.67,94.96c-2.48,27.68-4.86,55.37-7.33,83.05c-2.53,28.34-5.12,56.68-7.68,85.02
		c-0.36,3.98-0.96,7.95-1.01,11.93c-0.04,3.22-1.29,4.42-4.41,5.27c-28.69,7.8-57.58,15.04-85.88,24.08
		c-16.54,5.28-31.7,5.29-48.24,0c-28.14-9-56.86-16.21-85.38-24c-2.98-0.81-4.33-1.79-4.61-5.12c-2.45-29.02-5.11-58.02-7.73-87.02
		c-2.85-31.66-5.74-63.31-8.57-94.96c-2.18-24.37-4.27-48.74-6.42-73.11C186.47,223.28,185.81,216.49,185.13,209.17z M323.62,262.06
		c-27.49,0-54.98,0.14-82.46-0.13c-4.81-0.05-5.28,1.44-4.87,5.6c3.07,31.64,6.03,63.29,8.75,94.97c0.39,4.59,1.66,6.01,6.44,5.98
		c36.82-0.22,73.64-0.07,110.45-0.2c3.73-0.01,4.8,0.77,4.38,4.7c-1.31,12.25-2.29,24.53-3.11,36.82c-0.18,2.76-1.34,3.62-3.67,4.26
		c-11.05,3.04-22.08,6.17-33.09,9.35c-1.49,0.43-2.81,0.65-4.36,0.2c-11.33-3.28-22.67-6.54-34.05-9.65
		c-2.36-0.65-3.06-1.9-3.25-4.18c-0.57-6.63-1.45-13.23-2.03-19.86c-0.26-2.94-1.17-4.22-4.51-4.12
		c-8.99,0.28-17.99,0.27-26.98,0.01c-3.66-0.1-4.35,0.95-3.95,4.49c1.76,15.54,3.31,31.11,4.64,46.7c0.26,3.05,1.3,4.28,4.12,5.02
		c21.69,5.71,43.36,11.5,65.01,17.39c2.38,0.65,4.46,0.53,6.79-0.12c19.86-5.48,39.75-10.84,59.64-16.23
		c8.02-2.17,7.86-2.18,8.52-10.4c2.53-31.53,5.08-63.05,7.86-94.56c0.37-4.24-0.57-5.23-4.82-5.21
		c-38.48,0.17-76.97,0.05-115.45,0.19c-3.93,0.01-5.94-0.51-6.18-5.07c-0.43-7.97-1.61-15.89-2.38-23.84
		c-0.58-6.04-0.51-6.05,5.74-6.05c40.65,0,81.3-0.06,121.95,0.09c4,0.01,5.88-0.59,6.05-5.13c0.33-8.81,1.14-17.61,2.1-26.38
		c0.41-3.7-0.36-4.77-4.3-4.75C378.93,262.15,351.28,262.06,323.62,262.06z"/>
	<path class="st1" d="M356.64,146c3.49-5.72,6.68-10.78,9.69-15.94c1.13-1.94,2.41-2.86,4.74-2.74c3.99,0.2,8,0.2,11.99,0.01
		c2.72-0.13,3.36,0.97,3.34,3.49c-0.09,15.32-0.11,30.65,0.01,45.97c0.02,2.85-0.87,3.59-3.67,3.67
		c-13.82,0.38-13.82,0.47-13.82-13.43c0-3.76,0-7.51,0-12.87c-4.6,7.02-8.36,12.77-12.44,19.01c-3.99-6.05-7.8-11.85-12.41-18.86
		c0,8.52-0.09,15.6,0.05,22.67c0.05,2.54-0.65,3.37-3.32,3.47c-13.91,0.54-13.91,0.63-13.91-13.35c0-11.83,0.08-23.65-0.06-35.47
		c-0.04-3.02,0.56-3.98,3.98-4.44c10.44-1.4,17.95,1.43,21.65,11.97C353.26,141.44,355.01,143.39,356.64,146z"/>
	<path class="st1" d="M262.22,153.71c0,7.5-0.13,14.99,0.06,22.48c0.08,3.13-0.65,4.53-4.07,4.24c-4.29-0.36-9.84,1.29-12.59-0.84
		c-2.94-2.27-0.97-8.09-0.92-12.33c0.04-3.32-0.64-4.57-4.3-4.55c-12.06,0.07-12.24-0.09-11.99,12.2c0.08,4.19-0.71,5.72-5.35,5.59
		c-12.26-0.34-12.27-0.09-12.27-12.56c0-12.16,0.13-24.32-0.08-36.48c-0.06-3.37,0.97-4.45,4.22-4.14
		c4.27,0.41,9.71-1.73,12.54,0.86c2.66,2.44,0.92,7.9,0.73,11.99c-0.19,3.94,0.95,5.06,4.95,4.98c11.55-0.24,11.87-0.06,11.42-11.72
		c-0.2-5.23,1.4-6.36,6.34-6.19c11.32,0.38,11.33,0.11,11.33,11.47C262.23,143.71,262.23,148.71,262.22,153.71z"/>
	<path class="st1" d="M303.25,163.02c0,4.82-0.08,9.65,0.03,14.47c0.05,2.13-0.64,2.99-2.84,2.91c-3.82-0.13-7.66-0.18-11.47,0.02
		c-2.78,0.14-3.28-1.1-3.26-3.54c0.1-9.31-0.07-18.63,0.11-27.93c0.06-3.02-0.72-4.12-3.88-3.95c-3.77,0.2-8.86,1.27-11.02-0.67
		c-2.58-2.31-0.35-7.53-0.91-11.42c-0.66-4.67,1.21-5.75,5.68-5.65c13.13,0.3,26.27,0.19,39.41,0.05c2.96-0.03,4.4,0.62,3.96,3.83
		c-0.2,1.47,0.08,3-0.06,4.48c-0.29,3.09,1.38,8.19-0.77,8.86c-3.61,1.12-7.94,2.86-11.98,1.16c-3.09-1.3-3.01,0.41-3.01,2.44
		C303.25,153.05,303.25,158.04,303.25,163.02z"/>
	<path class="st1" d="M395.2,153.87c0-7.65,0.13-15.3-0.07-22.95c-0.08-2.92,0.91-3.76,3.69-3.6c3.48,0.2,7,0.27,10.47-0.02
		c3.26-0.27,3.85,1.09,3.8,4.01c-0.16,9.31,0.08,18.63-0.13,27.94c-0.07,3.13,0.85,4,3.92,3.87c5.81-0.24,11.64,0.05,17.46-0.12
		c2.7-0.08,3.67,0.56,3.73,3.51c0.28,13.88,0.38,13.88-13.31,13.88c-8.65,0-17.3-0.1-25.94,0.06c-2.8,0.05-3.74-0.72-3.66-3.61
		C395.33,169.17,395.2,161.52,395.2,153.87z"/>
	<path class="st0" d="M323.62,262.06c27.65,0,55.31,0.09,82.96-0.1c3.95-0.03,4.71,1.05,4.3,4.75c-0.97,8.77-1.77,17.57-2.1,26.38
		c-0.17,4.53-2.05,5.14-6.05,5.13c-40.65-0.15-81.3-0.09-121.95-0.09c-6.26,0-6.33,0.01-5.74,6.05c0.77,7.95,1.95,15.87,2.38,23.84
		c0.24,4.56,2.25,5.08,6.18,5.07c38.48-0.14,76.97-0.01,115.45-0.19c4.25-0.02,5.19,0.97,4.82,5.21
		c-2.78,31.5-5.34,63.03-7.86,94.56c-0.66,8.22-0.5,8.23-8.52,10.4c-19.89,5.39-39.78,10.75-59.64,16.23
		c-2.34,0.64-4.41,0.77-6.79,0.12c-21.64-5.89-43.31-11.68-65.01-17.39c-2.82-0.74-3.86-1.97-4.12-5.02
		c-1.33-15.59-2.88-31.15-4.64-46.7c-0.4-3.54,0.29-4.59,3.95-4.49c8.99,0.26,18,0.27,26.98-0.01c3.34-0.1,4.25,1.18,4.51,4.12
		c0.58,6.63,1.47,13.23,2.03,19.86c0.19,2.28,0.89,3.54,3.25,4.18c11.38,3.11,22.72,6.37,34.05,9.65c1.54,0.45,2.87,0.23,4.36-0.2
		c11.01-3.18,22.04-6.31,33.09-9.35c2.33-0.64,3.49-1.5,3.67-4.26c0.82-12.29,1.8-24.58,3.11-36.82c0.42-3.93-0.65-4.71-4.38-4.7
		c-36.82,0.13-73.64-0.02-110.45,0.2c-4.78,0.03-6.04-1.4-6.44-5.98c-2.72-31.67-5.68-63.33-8.75-94.97
		c-0.4-4.15,0.07-5.64,4.87-5.6C268.65,262.2,296.14,262.06,323.62,262.06z"/>
</g>
</svg>
