<?xml version="1.0" encoding="utf-8"?>
<!-- Generator: Adobe Illustrator 28.0.0, SVG Export Plug-In . SVG Version: 6.00 Build 0)  -->
<svg version="1.1" id="Layer_1" xmlns="http://www.w3.org/2000/svg" xmlns:xlink="http://www.w3.org/1999/xlink" x="0px" y="0px"
	 viewBox="0 0 800 800" style="enable-background:new 0 0 800 800;" xml:space="preserve">
<style type="text/css">
	.st0{fill:#FFFFFF;}
</style>
<circle class="st0" cx="400" cy="400" r="400"/>
<g>
	<path d="M373.8,0.22c-1.72,0.16-7.19,0.7-12.12,1.09C248.05,11.55,141.62,72.85,74.21,167.07C36.68,219.46,12.67,278.88,3.6,341.83
		C0.39,363.8,0,370.29,0,400.08c0,29.79,0.39,36.28,3.6,58.25c21.74,150.2,128.64,276.4,273.63,323.16
		c25.96,8.37,53.33,14.07,84.46,17.51c12.12,1.33,64.52,1.33,76.64,0c53.72-5.94,99.24-19.23,144.13-42.14
		c6.88-3.52,8.21-4.46,7.27-5.24c-0.63-0.47-29.95-39.8-65.14-87.34l-63.97-86.4l-80.16-118.61
		c-44.11-65.21-80.39-118.54-80.7-118.54c-0.31-0.08-0.63,52.62-0.78,116.97c-0.23,112.67-0.31,117.21-1.72,119.87
		c-2.03,3.83-3.6,5.4-6.88,7.12c-2.5,1.25-4.69,1.49-16.5,1.49h-13.53l-3.6-2.27c-2.35-1.49-4.07-3.44-5.24-5.71l-1.64-3.52
		l0.16-156.77l0.23-156.85l2.42-3.05c1.25-1.64,3.91-3.75,5.79-4.77c3.21-1.56,4.46-1.72,17.99-1.72c15.95,0,18.61,0.63,22.76,5.16
		c1.17,1.25,44.57,66.62,96.5,145.35s122.93,186.25,157.81,239.03L616.85,737l3.21-2.11c28.39-18.45,58.42-44.72,82.19-72.09
		c50.6-58.1,83.21-128.94,94.15-204.47c3.21-21.97,3.6-28.46,3.6-58.25c0-29.79-0.39-36.28-3.6-58.25
		c-21.74-150.2-128.64-276.4-273.63-323.16c-25.57-8.29-52.79-14-83.28-17.44C431.98,0.45,380.29-0.41,373.8,0.22L373.8,0.22z
		 M537.56,242.13c3.75,1.88,6.8,5.47,7.9,9.23c0.63,2.03,0.78,45.51,0.63,143.48l-0.23,140.59l-24.79-38l-24.87-38V357.23
		c0-66.07,0.31-103.21,0.78-105.01c1.25-4.38,3.99-7.82,7.74-9.85c3.21-1.64,4.38-1.8,16.66-1.8
		C532.94,240.57,534.98,240.73,537.56,242.13z"/>
</g>
</svg>
