<?xml version="1.0" encoding="utf-8"?>
<!-- Generator: Adobe Illustrator 28.0.0, SVG Export Plug-In . SVG Version: 6.00 Build 0)  -->
<svg version="1.1" id="Layer_1" xmlns="http://www.w3.org/2000/svg" xmlns:xlink="http://www.w3.org/1999/xlink" x="0px" y="0px"
	 viewBox="0 0 717.67 820.82" style="enable-background:new 0 0 717.67 820.82;" xml:space="preserve">
<style type="text/css">
	.st0{fill:#8FC43F;}
	.st1{fill:#46483D;}
	.st2{fill:#F7F7F7;}
</style>
<g>
	<path class="st0" d="M717.6,410.18c0,63.5-0.08,127.01,0.07,190.51c0.03,11.39-5.3,19.51-14.42,25.07
		c-16.89,10.28-34.12,20-51.23,29.91c-24.87,14.41-49.74,28.82-74.65,43.16c-35.53,20.46-71.13,40.81-106.65,61.29
		c-30.45,17.56-60.89,35.15-91.2,52.97c-5.52,3.24-11.55,4.93-17.31,7.42c-2.27,0.98-4.5-0.65-6.77-0.94
		c-4.45-0.57-8.78-1.79-12.71-4.07c-33.9-19.68-67.75-39.45-101.7-59.04c-35.37-20.41-70.87-40.6-106.26-60.99
		c-39.68-22.86-79.32-45.79-118.92-68.8C5.23,620.48,0,611.04,0,598.66c0.02-125.84,0.03-251.69,0.01-377.53
		c0-12.4,5.27-21.86,15.82-28.05c21.8-12.79,43.78-25.28,65.68-37.91c28.72-16.58,57.43-33.17,86.14-49.76
		c27.48-15.88,54.95-31.78,82.44-47.64c30.31-17.49,60.7-34.85,90.94-52.46c12.12-7.06,23.8-7.08,35.96-0.02
		c45.11,26.21,90.34,52.22,135.53,78.29c29.16,16.83,58.32,33.66,87.49,50.47c33.5,19.31,67.05,38.55,100.5,57.96
		c7,4.06,12.68,9.54,15.79,17.34c1.22,3.07,1.29,6.16,1.29,9.31c0.01,63.84,0.01,127.68,0.01,191.51
		C717.59,410.18,717.6,410.18,717.6,410.18z M463.23,371.77c-3.72-1.62-7.45-3.92-11.06-6.52c-6.04-4.35-10.94-4.44-16.63-0.02
		c-3.49,2.71-7.38,4.82-11.06,7.12c-12.71,7.93-25.79,15.27-38.89,22.54c-3.73,2.07-5.18,4.74-5.17,8.78
		c0.05,20.83,0.07,41.67-0.03,62.5c-0.02,3.58,1.25,6.01,4.36,7.73c4.67,2.57,9.25,5.3,13.86,7.97c7.21,4.17,14.86,7.74,21.49,12.68
		c6.58,4.91,13.85,8.21,21.03,11.83c1.95,0.98,4.41,1.04,6.31-0.07c3.32-1.94,7.13-2.91,10.28-5.01
		c14.67-9.79,30.16-18.21,45.4-27.02c3.64-2.1,4.98-4.87,4.97-8.96c-0.07-53-0.05-106-0.03-159c0-2.19-0.09-4.32-0.94-5.8
		c-13.22-7.4-25.2-16.05-38.25-21.85c-4.07,1.27-3.59,4.14-3.59,6.78c0,26.83,0.01,53.67-0.03,80.5
		C465.26,367.83,466.04,370.04,463.23,371.77z M210.95,433.17c0.01,0,0.01,0,0.02,0c0,10.49,0.1,20.98-0.05,31.47
		c-0.06,3.9,1.2,6.58,4.69,8.56c17.75,10.1,35.47,20.25,53.08,30.59c3.91,2.3,7.18,2.4,11.09,0.1
		c17.74-10.41,35.57-20.66,53.44-30.86c3.43-1.96,4.82-4.53,4.8-8.47c-0.11-20.81-0.08-41.63,0.01-62.45
		c0.02-3.74-1.37-6.31-4.6-8.16c-17.86-10.24-35.71-20.5-53.52-30.84c-3.66-2.12-7.02-2.32-10.76-0.14
		c-17.62,10.27-35.26,20.51-53.02,30.53c-3.66,2.06-5.31,4.51-5.24,8.69C211.06,412.52,210.95,422.85,210.95,433.17z M163.89,491.69
		c4.32-1.19,4.08-4.17,4.08-7.03c0.01-27.49-0.03-54.98,0.11-82.47c0.02-4.21-1.61-6.88-5.16-8.86c-6.1-3.41-12.06-7.07-18.15-10.49
		c-6.62-3.72-13.58-6.89-19.9-11.04c-5.27-3.46-10.77-6.49-16.11-9.79c-3.16-1.95-6.2-1.66-9.4,0.2
		c-17.71,10.26-35.45,20.46-53.22,30.6c-3.68,2.1-5.31,4.82-5.28,9.27c0.2,27.82,0.12,55.65,0.15,83.47c0,1.48-0.28,3,0.46,4.44
		c1.39,1.44,3.28,2.52,4.75,0.87c2.68-3.01,6.39-3.87,9.75-5.42c7.68-3.54,14.33-8.83,21.87-12.58c3.85-1.91,5.44-4.91,5.37-9.27
		c-0.17-11.99-0.02-23.99-0.09-35.99c-0.02-2.89,0.34-5.61,1.91-8.31c4.9-1.77,9.33-4.76,13.8-7.59c3.91-2.47,7.42-2.26,11.16,0.08
		c3.25,2.03,6.47,4.15,9.92,5.77c4.03,1.89,5.46,4.76,5.39,9.12c-0.19,12.33-0.03,24.66-0.09,36.99c-0.02,3.37,0.69,6.24,3.8,8.12
		C140.5,478.68,152.16,485.28,163.89,491.69z M613.74,360.24c-8.61,4.96-16.8,9.71-25.02,14.42c-4.44,2.55-8.44,6.11-12.9,8.16
		c-7.43,3.42-14.16,7.91-21.34,11.66c-3.15,1.64-4.46,4.12-4.41,7.7c0.13,8.99,0.05,17.99,0.04,26.99c0,12.16,0.09,24.32-0.08,36.48
		c-0.05,3.55,1.02,6.62,4.13,7.77c9.03,3.34,16.54,9.33,24.94,13.76c10.42,5.5,20.52,11.6,30.77,17.43
		c2.35,1.33,4.72,1.41,7.13,0.06c10.89-6.1,21.83-12.12,32.67-18.32c3.99-2.28,3.84-4.98-0.21-7.49c-2.83-1.75-5.76-3.34-8.65-4.99
		c-15.01-8.62-30.01-17.26-45.03-25.87c-1.76-1.01-3.61-1.94-3.62-4.34c-0.03-7.3-0.01-14.6-0.01-22.09
		c7.07-4.09,13.82-7.99,20.39-11.79c0.81,0.16,1.3,0.22,1.77,0.36c6.94,2.13,11.99,7.55,18.4,10.63c1.72,0.83,1.58,2.75,1.57,4.45
		c-0.03,4.5-0.12,9,0.02,13.49c0.12,3.69,2.54,5.24,5.64,3.64c11.31-5.83,22.02-12.73,33.02-19.11c3.03-1.75,4.29-4.45,4.16-7.94
		c-0.12-3.16-0.38-6.38,0.04-9.48c0.88-6.47-2.11-10.4-7.57-13.06c-9.88-4.83-19.23-10.69-28.69-16.21
		C631.91,371.3,622.93,365.98,613.74,360.24z M613.43,419.6c-3.79,2.41-7.06,4.67-10.79,5.43c-2.13,3.9-1.02,7.8-1.3,11.55
		c-0.24,3.13,1.39,5.11,4.1,6.09c3.19,1.15,6.1,3.03,9.14,3.59c3.78-2.06,7.23-3.94,10.55-5.76c0-4.83,0-9.29,0-13.71
		C621.59,423.68,617.13,422.45,613.43,419.6z"/>
	<path class="st1" d="M463.23,371.77c2.81-1.73,2.03-3.93,2.03-5.82c0.04-26.83,0.03-53.67,0.03-80.5c0-2.64-0.49-5.51,3.59-6.78
		c13.05,5.8,25.04,14.45,38.25,21.85c0.85,1.48,0.94,3.62,0.94,5.8c-0.02,53-0.04,106,0.03,159c0.01,4.09-1.34,6.86-4.97,8.96
		c-15.25,8.81-30.73,17.22-45.4,27.02c-3.14,2.1-6.96,3.07-10.28,5.01c-1.9,1.11-4.36,1.06-6.31,0.07
		c-7.18-3.61-14.45-6.92-21.03-11.83c-6.63-4.94-14.28-8.51-21.49-12.68c-4.61-2.67-9.2-5.39-13.86-7.97
		c-3.11-1.72-4.38-4.15-4.36-7.73c0.1-20.83,0.08-41.67,0.03-62.5c-0.01-4.04,1.44-6.71,5.17-8.78
		c13.1-7.27,26.18-14.62,38.89-22.54c3.69-2.3,7.57-4.41,11.06-7.12c5.7-4.42,10.59-4.33,16.63,0.02
		C455.78,367.85,459.51,370.15,463.23,371.77z M465.13,422.48c-7.13-4.1-14.16-8.13-21.14-12.13c-7.12,4.35-14.3,7.82-20.7,12.23
		c0,8.29,0,16.25,0,24.29c6.85,4.27,13.72,8.23,20.9,11.99c7.08-4.14,14.29-7.86,20.93-12.34
		C465.13,438.5,465.13,430.85,465.13,422.48z"/>
	<path class="st2" d="M210.95,433.17c0-10.32,0.11-20.65-0.05-30.97c-0.07-4.17,1.58-6.62,5.24-8.69
		c17.76-10.02,35.4-20.26,53.02-30.53c3.74-2.18,7.1-1.98,10.76,0.14c17.81,10.34,35.66,20.6,53.52,30.84
		c3.22,1.85,4.62,4.41,4.6,8.16c-0.1,20.81-0.12,41.63-0.01,62.45c0.02,3.94-1.37,6.51-4.8,8.47
		c-17.87,10.19-35.7,20.45-53.44,30.86c-3.92,2.3-7.18,2.2-11.09-0.1c-17.61-10.34-35.33-20.49-53.08-30.59
		c-3.49-1.98-4.74-4.66-4.69-8.56c0.15-10.49,0.05-20.98,0.05-31.47C210.96,433.17,210.95,433.17,210.95,433.17z M273.05,407.59
		c-6.35,3.66-12.36,7.12-18.37,10.58c-1.95,1.12-2.53,2.83-2.5,5.03c0.09,5.98,0.03,11.96,0.03,18.26
		c5.58,6.25,13.91,8.45,20.47,13.38c7.33-3.24,13.67-7.74,20.43-11.48c1.37-7.12,0.62-14.1,0.65-21.06
		c0.01-2.08-1.41-3.23-2.94-4.33C285.32,414.03,279.16,411.23,273.05,407.59z"/>
	<path class="st1" d="M163.89,491.69c-11.73-6.41-23.39-13.01-34.87-19.92c-3.11-1.87-3.82-4.75-3.8-8.12
		c0.06-12.33-0.1-24.66,0.09-36.99c0.07-4.36-1.37-7.23-5.39-9.12c-3.45-1.62-6.67-3.74-9.92-5.77c-3.74-2.34-7.25-2.55-11.16-0.08
		c-4.47,2.83-8.9,5.81-13.8,7.59c-1.57,2.71-1.93,5.43-1.91,8.31c0.07,12-0.08,23.99,0.09,35.99c0.06,4.36-1.53,7.36-5.37,9.27
		c-7.54,3.75-14.19,9.04-21.87,12.58c-3.35,1.54-7.06,2.41-9.75,5.42c-1.48,1.66-3.37,0.58-4.75-0.87
		c-0.75-1.43-0.46-2.96-0.46-4.44c-0.03-27.82,0.05-55.65-0.15-83.47c-0.03-4.45,1.6-7.17,5.28-9.27
		c17.77-10.15,35.51-20.34,53.22-30.6c3.2-1.85,6.24-2.15,9.4-0.2c5.35,3.3,10.84,6.33,16.11,9.79c6.32,4.15,13.29,7.32,19.9,11.04
		c6.09,3.42,12.05,7.08,18.15,10.49c3.55,1.98,5.18,4.65,5.16,8.86c-0.14,27.49-0.09,54.98-0.11,82.47
		C167.97,487.52,168.21,490.5,163.89,491.69z"/>
	<path class="st1" d="M613.74,360.24c9.19,5.74,18.18,11.06,27.16,16.3c9.46,5.52,18.81,11.38,28.69,16.21
		c5.46,2.67,8.45,6.6,7.57,13.06c-0.42,3.11-0.17,6.32-0.04,9.48c0.13,3.5-1.13,6.19-4.16,7.94c-11,6.38-21.71,13.27-33.02,19.11
		c-3.11,1.6-5.53,0.05-5.64-3.64c-0.14-4.49-0.05-8.99-0.02-13.49c0.01-1.7,0.15-3.62-1.57-4.45c-6.41-3.08-11.46-8.5-18.4-10.63
		c-0.47-0.14-0.96-0.2-1.77-0.36c-6.57,3.8-13.31,7.7-20.39,11.79c0,7.49-0.02,14.79,0.01,22.09c0.01,2.4,1.86,3.33,3.62,4.34
		c15.02,8.61,30.02,17.24,45.03,25.87c2.89,1.66,5.82,3.24,8.65,4.99c4.05,2.51,4.2,5.21,0.21,7.49
		c-10.84,6.19-21.78,12.21-32.67,18.32c-2.4,1.35-4.78,1.27-7.13-0.06c-10.25-5.83-20.35-11.93-30.77-17.43
		c-8.4-4.43-15.9-10.42-24.94-13.76c-3.11-1.15-4.17-4.22-4.13-7.77c0.17-12.16,0.08-24.32,0.08-36.48c0-9,0.09-17.99-0.04-26.99
		c-0.05-3.58,1.26-6.06,4.41-7.7c7.18-3.75,13.92-8.24,21.34-11.66c4.46-2.05,8.46-5.62,12.9-8.16
		C596.93,369.95,605.13,365.2,613.74,360.24z"/>
	<path class="st1" d="M613.43,419.6c3.7,2.85,8.15,4.08,11.71,7.18c0,4.43,0,8.88,0,13.71c-3.32,1.81-6.78,3.7-10.55,5.76
		c-3.04-0.56-5.96-2.44-9.14-3.59c-2.71-0.97-4.34-2.96-4.1-6.09c0.28-3.76-0.83-7.65,1.3-11.55
		C606.37,424.27,609.64,422.01,613.43,419.6z"/>
	<path class="st0" d="M465.13,422.48c0,8.37,0,16.02,0,24.05c-6.64,4.48-13.85,8.2-20.93,12.34c-7.18-3.76-14.06-7.73-20.9-11.99
		c0-8.04,0-16,0-24.29c6.4-4.41,13.58-7.88,20.7-12.23C450.97,414.35,457.99,418.39,465.13,422.48z"/>
	<path class="st0" d="M273.05,407.59c6.11,3.64,12.27,6.45,17.77,10.39c1.53,1.09,2.95,2.24,2.94,4.33
		c-0.04,6.96,0.72,13.94-0.65,21.06c-6.76,3.73-13.1,8.24-20.43,11.48c-6.56-4.93-14.89-7.13-20.47-13.38
		c0-6.29,0.06-12.28-0.03-18.26c-0.03-2.2,0.55-3.9,2.5-5.03C260.69,414.71,266.7,411.24,273.05,407.59z"/>
</g>
</svg>
