<?xml version="1.0" encoding="utf-8"?>
<!-- Generator: Adobe Illustrator 28.0.0, SVG Export Plug-In . SVG Version: 6.00 Build 0)  -->
<svg version="1.1" id="Layer_1" xmlns="http://www.w3.org/2000/svg" xmlns:xlink="http://www.w3.org/1999/xlink" x="0px" y="0px"
	 viewBox="0 0 1150 1000" style="enable-background:new 0 0 1150 1000;" xml:space="preserve">
<style type="text/css">
	.st0{fill:#61D9FA;}
</style>
<g>
	<path class="st0" d="M330.05,0.1c14.33,0,28.66,0,42.99,0c0.44,0.23,0.85,0.61,1.31,0.68c33.26,5.33,63.23,19.09,91.81,36.22
		c38.61,23.14,73.08,51.61,105.29,82.89c2.78,2.7,4.32,2.73,7.11,0.01c20.49-20.04,42.11-38.78,65.13-55.87
		c30.87-22.92,63.41-42.81,100.04-55.35c10.87-3.72,22.11-5.89,33.24-8.58c14.33,0,28.66,0,42.99,0c4.15,1.11,8.33,2.11,12.44,3.34
		c36.27,10.84,59.18,35.83,73.28,69.84c12.06,29.08,15.72,59.8,15.97,90.93c0.38,47.06-7.18,93.15-18.13,138.78
		c-2.25,9.38-4.21,7.88,6.62,11.1c42.4,12.61,83.68,27.98,122.31,49.82c28.31,16.01,54.51,34.73,75.2,60.25
		c16.44,20.27,27.36,43.01,29.03,69.36c1.72,27.21-6.94,51.51-22.42,73.56c-18.56,26.42-43.38,45.86-70.62,62.45
		c-41.7,25.4-86.92,42.52-133.51,56.4c-10.57,3.15-8.88,1.55-6.63,11.11c13.09,55.66,22.02,111.72,16.42,169.18
		c-2.32,23.84-7.4,47.02-17.91,68.73c-14.62,30.21-36.85,51.9-69.62,61.63c-4.11,1.22-8.29,2.24-12.43,3.35
		c-14.33,0-28.66,0-42.99,0c-0.43-0.24-0.84-0.62-1.3-0.69c-32.9-5.32-62.59-18.85-90.94-35.74
		c-38.83-23.13-73.43-51.7-105.79-83.06c-3.12-3.02-4.73-3.05-7.85,0.01c-23.46,22.99-48.44,44.19-75.27,63.17
		c-29.07,20.56-59.69,38.19-93.8,49.16c-9.5,3.05-19.35,4.61-28.97,7.16c-14.33,0-28.66,0-42.99,0c-4.15-1.11-8.32-2.11-12.43-3.35
		c-36.23-10.89-59.21-35.8-73.31-69.84c-12.04-29.09-15.73-59.8-15.97-90.94c-0.37-47.06,7.15-93.16,18.18-138.77
		c2.08-8.62,2.06-8.58-6.61-11.14c-44.84-13.27-88.37-29.73-128.81-53.54c-26-15.31-49.95-33.17-69.05-56.87
		c-16.28-20.19-27.07-42.78-28.73-68.97c-1.72-27.03,6.81-51.21,22.13-73.16c18.48-26.48,43.27-45.97,70.49-62.59
		c41.82-25.53,87.18-42.76,133.95-56.63c8.7-2.58,8.68-2.53,6.65-11.13c-13.19-55.81-22.11-112.05-16.42-169.67
		c2.34-23.67,7.47-46.66,17.87-68.24c12.44-25.8,30.74-45.69,57.41-57.29C313.35,4.32,321.82,2.63,330.05,0.1z M740.94,669.92
		c0.82,0.06,1.66,0.26,2.46,0.17c31.55-3.7,62.8-9.21,93.83-15.96c3.85-0.84,2.66-2.91,1.96-5.16
		c-8.27-26.53-18.04-52.51-28.39-78.28c-1.64-4.08-3.42-8.11-5.14-12.14c-1.73,0.65-1.97,1.91-2.48,2.9
		c-17.15,32.72-35.51,64.74-54.99,96.13c-2.52,4.06-5.77,7.72-7.19,12.42c-0.05,0.09-0.1,0.17-0.15,0.26
		C740.89,670.14,740.91,670.03,740.94,669.92z M740.94,330.08c-0.08-0.07-0.15-0.15-0.23-0.22c0.1,0.05,0.21,0.1,0.31,0.15
		c-0.1,1.66,1.09,2.74,1.87,3.97c21.48,34.06,41.62,68.9,60.32,104.56c0.53,1.02,0.63,2.66,2.64,2.66
		c12.31-29.26,23.32-59.01,33.2-89.2c1.56-4.77,0.05-5.92-4.22-6.81c-19.69-4.1-39.44-7.92-59.32-10.88
		C764.03,332.61,752.64,329.97,740.94,330.08z M575.41,680.94c32.64-0.45,65.27-1.22,97.83-3.71c3.05-0.23,4.8-1.45,6.41-3.84
		c36.64-54.37,69.34-111,98.08-169.93c1.22-2.51,1.16-4.55-0.05-7.02c-28.81-59.08-61.6-115.86-98.37-170.34
		c-1.44-2.13-3.01-3.07-5.63-3.29c-24.91-2.1-49.88-2.92-74.85-3.42c-40.82-0.82-81.6,0.38-122.33,3.45c-2.84,0.21-4.53,1.24-6,3.54
		c-5.32,8.26-10.85,16.39-16.18,24.64c-30.12,46.65-57.37,94.91-81.68,144.84c-1.23,2.53-1.82,4.66-0.45,7.47
		c28.91,59.21,61.76,116.15,98.65,170.76c1.33,1.97,2.81,2.86,5.24,3.05C509.14,679.75,542.26,680.52,575.41,680.94z M277.02,170.28
		c0.22,4.39,0.56,10.7,0.85,17.02c1.69,36.73,8.5,72.64,17.06,108.29c0.81,3.38,2.38,3.82,5.31,3.15
		c46.31-10.49,93.18-17.4,140.43-21.9c3.51-0.33,5.98-1.62,8.17-4.69c27.46-38.56,56.79-75.63,88.94-110.41
		c2.48-2.68,2.63-4.2-0.12-6.83c-25.19-24.12-51.65-46.66-80.75-65.97c-25.37-16.84-51.9-31.3-81.87-38.31
		c-13.43-3.14-27.03-4.19-40.58-1.08c-22.52,5.18-35.81,20.67-44.38,40.98C279.57,115.42,277.59,141.76,277.02,170.28z
		 M277.13,831.66c-0.11,11.34,0.66,22.64,2.01,33.88c2.18,18.28,6.17,36.12,15.03,52.48c12.26,22.67,31.09,34.35,57.16,34.13
		c20.78-0.17,40.04-6.29,58.61-14.79c48.99-22.43,89.82-56.22,128.44-93.02c2.46-2.34,1.51-3.76-0.3-5.72
		c-30.1-32.58-57.99-66.99-83.58-103.18c-5.97-8.45-12.14-14.01-22.78-13.22c-0.33,0.02-0.66-0.08-0.99-0.11
		c-41.77-4.03-83.14-10.7-124.19-19.33c-10.57-2.22-10.58-2.26-13.04,7.96C283.94,750.49,277.6,790.68,277.13,831.66z
		 M872.92,165.58c0.39-5.27-0.5-13.07-1.07-20.87c-1.23-16.98-4.08-33.69-10.08-49.73c-13.6-36.33-38.69-51.32-77.17-46.06
		c-20.06,2.74-38.55,10.2-56.38,19.36c-43.7,22.45-81.01,53.46-116.34,87.11c-2.57,2.45-1.85,3.91,0.16,6.09
		c29.75,32.22,57.5,66.11,82.6,102.03c6.79,9.72,14.22,13.7,25.78,14.66c41.48,3.46,82.5,10.37,123.21,19.03
		c10.41,2.21,10.41,2.3,12.92-8.14C866.08,249.32,872.41,209.13,872.92,165.58z M872.99,830.05c-0.21-4.06-0.55-9.87-0.79-15.69
		c-1.54-37.25-8.42-73.65-17.09-109.79c-0.77-3.21-2.03-3.97-5.18-3.27c-46.5,10.36-93.49,17.59-140.93,21.84
		c-3.41,0.31-5.68,1.72-7.71,4.57c-27.48,38.54-56.78,75.63-88.94,110.4c-2.69,2.91-2.56,4.52,0.25,7.19
		c22.11,21.02,45.07,41.03,70.07,58.58c25.85,18.15,52.87,34.13,83.44,43.19c16,4.74,32.3,7.07,48.79,3.51
		c22.75-4.92,36.3-20.46,44.98-40.97C870.39,884.74,872.37,858.39,872.99,830.05z M1088.02,501.48
		c-0.09-17.88-6.88-31.93-16.83-44.67c-13.5-17.29-30.53-30.59-48.99-42.14c-40.45-25.31-84.7-41.62-130.2-55.01
		c-3.39-1-4.38,0.13-5.23,3.05c-1.63,5.59-3.53,11.1-5.37,16.62c-13.15,39.52-28.65,78.11-45.95,115.99
		c-1.31,2.87-1.82,5.35-0.39,8.49c19.89,43.48,37.39,87.9,51.73,133.52c0.93,2.94,1.91,3.96,5.25,2.98
		c39.73-11.6,78.46-25.68,114.74-45.84c21.64-12.02,42-25.85,58.67-44.43C1078.19,535.85,1087.58,520.05,1088.02,501.48z
		 M260.17,359.08c-0.71,0.22-1.5,0.47-2.3,0.71c-42.14,12.27-83.17,27.32-121.24,49.52c-21.7,12.66-41.88,27.29-57.59,47.24
		c-9.77,12.4-16.64,26.08-16.97,42.33c-0.33,16.85,6.5,31.07,16.52,43.98c14.73,18.97,33.62,33.1,53.99,45.38
		c39.23,23.64,81.81,39.23,125.52,52.13c4.05,1.2,4.42-1,5.27-3.68c14.27-45.12,31.58-89.07,51.21-132.12
		c1.54-3.39,1.4-6.07-0.12-9.38c-11.14-24.38-21.51-49.08-31.02-74.14c-7.26-19.14-13.94-38.48-20.2-57.98
		C262.74,361.46,262.85,359.24,260.17,359.08z M639.92,271.83c-0.95-1.57-1.32-2.31-1.81-2.95c-18.86-24.77-38.71-48.71-59.54-71.85
		c-2.92-3.25-4.48-2.94-7.24,0.12c-20.74,23-40.47,46.82-59.24,71.45c-0.66,0.86-1.75,1.65-1.03,3.2
		C553.7,269.95,596.38,269.99,639.92,271.83z M510.91,728.16c-0.24,1.91,0.79,2.67,1.46,3.56c18.69,24.53,38.36,48.23,59,71.15
		c2.88,3.2,4.43,3.14,7.25,0c20.75-23.04,40.53-46.88,59.31-71.55c0.64-0.84,1.8-1.63,0.91-3.15
		C596.3,730.02,553.7,730.03,510.91,728.16z M409.73,329.86c-3,0.13-4.81,0.08-6.57,0.31c-29.51,3.93-58.82,9.01-87.97,15.05
		c-4.92,1.02-5.56,2.81-4.08,7.3c8.45,25.77,17.76,51.23,27.93,76.36c1.71,4.22,3.53,8.4,5.71,13.58
		C364.99,403.66,386.35,366.77,409.73,329.86z M344.72,557.47c-13.08,31.09-24.46,61.43-34.26,92.36c-0.9,2.85,0.05,3.7,2.8,4.32
		c27.43,6.18,55.14,10.79,82.96,14.68c4.06,0.57,8.24,2.16,13.04,0.52C386.2,633.06,364.98,596.22,344.72,557.47z"/>
	<path class="st0" d="M675.06,500.21c-0.06,55.39-44.77,99.91-100.27,99.84c-55.39-0.07-99.9-44.78-99.84-100.28
		c0.06-55.4,44.76-99.9,100.28-99.83C630.65,400.01,675.12,444.68,675.06,500.21z"/>
</g>
</svg>
