<?xml version="1.0" encoding="utf-8"?>
<!-- Generator: Adobe Illustrator 28.0.0, SVG Export Plug-In . SVG Version: 6.00 Build 0)  -->
<svg version="1.1" id="logosandtypes_com" xmlns="http://www.w3.org/2000/svg" xmlns:xlink="http://www.w3.org/1999/xlink" x="0px"
	 y="0px" viewBox="0 0 150 150" style="enable-background:new 0 0 150 150;" xml:space="preserve">
<style type="text/css">
	.st0{fill:#FFFFFF;}
	.st1{fill:none;}
	.st2{fill:#95BF46;}
	.st3{fill:#5E8E3E;}
</style>
<polygon class="st0" points="36.32,55.27 91.48,37.71 81,129.03 25.25,118.11 "/>
<path class="st1" d="M0,0h150v150H0V0z"/>
<path class="st2" d="M118.86,33.01L118.86,33.01c-0.09-0.57-0.56-1-1.13-1.05l-10.46-0.78l-7.69-7.65
	c-0.77-0.76-2.25-0.53-2.83-0.36l-3.88,1.2c-2.32-6.67-6.41-12.79-13.6-12.79h-0.61c-2-2.71-4.58-3.88-6.77-3.88
	c-16.75,0-24.76,20.94-27.27,31.59L32.9,42.94c-3.64,1.14-3.75,1.26-4.23,4.68c-0.36,2.6-9.87,76.18-9.87,76.18l74.1,13.89
	l40.15-8.69C133.05,129,119,33.67,118.86,33.01z M76.41,16.92c1.26,3.63,1.83,7.45,1.7,11.29v0.73l-13,4
	c2.49-9.62,7.17-14.27,11.25-16L76.41,16.92z M71.41,12.21L71.41,12.21c0.77,0.02,1.53,0.27,2.15,0.73
	c-5.35,2.52-11.1,8.86-13.56,21.6l-10.21,3.17c2.85-9.7,9.61-25.5,21.64-25.5L71.41,12.21z M79.25,54.14L79.25,54.14l-5,14.73
	c-3.01-1.47-6.3-2.27-9.65-2.32c-7.8,0-8.19,4.89-8.19,6.13C56.48,79.4,74,81.98,74,97.73c0,12.4-7.86,20.38-18.46,20.38
	c-12.72,0-19.22-7.92-19.22-7.92l3.4-11.25c0,0,6.69,5.74,12.33,5.74c2.76,0.1,5.08-2.05,5.19-4.81c0-0.06,0-0.13,0-0.19
	c0-8.78-14.39-9.17-14.39-23.58c0-12.14,8.71-23.88,26.29-23.88c6.77,0,10.12,1.94,10.12,1.94L79.25,54.14z M82.5,27.58
	c0-0.44,0-0.88,0-1.35c0.07-3.44-0.44-6.86-1.5-10.13c3.71,0.47,6.17,4.68,7.76,9.54L82.5,27.58z"/>
<path class="st3" d="M117.73,31.96l-10.46-0.78l-7.69-7.65c-0.3-0.27-0.68-0.44-1.08-0.49l-5.6,114.6l40.15-8.69
	c0,0-14.05-95.28-14.19-95.94C118.77,32.44,118.3,32.01,117.73,31.96"/>
</svg>
