<?xml version="1.0" encoding="utf-8"?>
<!-- Generator: Adobe Illustrator 28.0.0, SVG Export Plug-In . SVG Version: 6.00 Build 0)  -->
<svg version="1.1" id="Layer_1" xmlns="http://www.w3.org/2000/svg" xmlns:xlink="http://www.w3.org/1999/xlink" x="0px" y="0px"
	 viewBox="0 0 2367 2051" style="enable-background:new 0 0 2367 2051;" xml:space="preserve">
<style type="text/css">
	.st0{fill:#41B883;}
	.st1{fill:#34495E;}
</style>
<g>
	<path class="st0" d="M2367,2.41c-19.17,33.02-38.41,65.99-57.5,99.05c-90.75,157.12-181.46,314.25-272.19,471.38
		c-96.21,166.65-192.41,333.3-288.64,499.94c-90.9,157.41-181.86,314.79-272.76,472.2c-93.23,161.45-186.41,322.93-279.62,484.39
		c-3.65,6.32-7.35,12.61-11.03,18.92c-3.6-1.37-4.24-4.54-5.64-6.97c-106.92-185.07-213.79-370.17-320.67-555.26
		c-95.89-166.07-191.79-332.13-287.67-498.2C467.91,808.83,364.54,629.79,261.16,450.75C176.26,303.71,91.35,156.68,6.41,9.66
		C4.8,6.87,3.9,3.35,0.1,2.41c0.44-0.61-1.01-2.08,1-2.02c2.66,0.09,5.33,0.02,8,0.02c155.59,0,311.19,0,466.78,0
		c0.62,4.79,3.43,8.59,5.76,12.6c3.51,6.04,7.05,12.05,10.54,18.1c16.63,28.8,33.23,57.61,49.86,86.41
		c15.8,27.36,31.64,54.69,47.44,82.04c18.79,32.54,37.54,65.11,56.33,97.64c15.8,27.35,31.68,54.66,47.47,82.03
		c18.61,32.26,37.12,64.58,55.74,96.83c21.12,36.57,42.36,73.07,63.46,109.65c21.43,37.16,42.69,74.42,64.15,111.57
		c23.12,40.02,46.46,79.92,69.57,119.94c21.46,37.15,42.67,74.43,64.13,111.58c25.78,44.63,51.78,89.13,77.55,133.77
		c28.76,49.82,57.29,99.78,86.19,149.53c3.19,5.48,5.51,11.75,10.54,16.71c1.75-2.54,3.2-4.37,4.36-6.37
		c19.67-33.95,39.35-67.9,58.92-101.91c26.71-46.4,53.24-92.9,80-139.28c28.75-49.83,57.7-99.54,86.49-149.35
		c23.3-40.31,46.42-80.71,69.72-121.02c25.8-44.62,51.78-89.13,77.55-133.77c28.76-49.82,57.33-99.76,86.08-149.59
		c23.93-41.48,48.04-82.84,71.98-124.32c26.1-45.22,52.02-90.54,78.14-135.74c28.44-49.24,57.12-98.34,85.41-147.66
		c3.6-6.27,8.59-11.95,9.96-19.4c155.26,0,310.52-0.01,465.78,0.11C2361.62,0.52,2365.15-1.5,2367,2.41z"/>
	<path class="st1" d="M1893.22,0.41c-1.37,7.46-6.36,13.14-9.96,19.4c-28.29,49.32-56.97,98.42-85.41,147.66
		c-26.12,45.21-52.04,90.52-78.14,135.74c-23.94,41.47-48.05,82.84-71.98,124.32c-28.75,49.83-57.31,99.77-86.08,149.59
		c-25.77,44.64-51.75,89.15-77.55,133.77c-23.3,40.3-46.43,80.71-69.72,121.02c-28.79,49.81-57.74,99.52-86.49,149.35
		c-26.75,46.38-53.29,92.88-80,139.28c-19.57,34.01-39.25,67.95-58.92,101.91c-1.16,2-2.61,3.83-4.36,6.37
		c-5.03-4.97-7.35-11.23-10.54-16.71c-28.9-49.74-57.42-99.71-86.19-149.53c-25.77-44.64-51.77-89.14-77.55-133.77
		c-21.46-37.15-42.68-74.43-64.13-111.58c-23.12-40.02-46.45-79.92-69.57-119.94c-21.46-37.15-42.71-74.41-64.15-111.57
		c-21.1-36.58-42.34-73.08-63.46-109.65c-18.62-32.25-37.13-64.57-55.74-96.83c-15.79-27.36-31.67-54.67-47.47-82.03
		c-18.8-32.54-37.54-65.1-56.33-97.64c-15.8-27.36-31.64-54.69-47.44-82.04c-16.63-28.8-33.23-57.61-49.86-86.41
		c-3.49-6.05-7.03-12.06-10.54-18.1c-2.33-4.01-5.14-7.81-5.76-12.6c145.27,0,290.53,0,435.8,0c0.65,1.49,1.17,3.07,1.98,4.47
		c88.78,153.83,177.59,307.66,266.45,461.44c1.22,2.11,1.76,5.02,5.17,5.82c1.87-3.07,3.81-6.15,5.63-9.3
		c72.03-124.71,144.08-249.42,216.05-374.16c16.94-29.36,33.65-58.85,50.46-88.28C1602.69,0.41,1747.95,0.41,1893.22,0.41z"/>
</g>
</svg>
